<svg width="45" height="45" viewBox="0 0 45 45" fill="none" xmlns="http://www.w3.org/2000/svg">
<circle cx="22.5" cy="22.5" r="21.66" stroke="#292D34" stroke-width="1.68"/>
<mask id="path-2-inside-1_73_166" fill="white">
<path fill-rule="evenodd" clip-rule="evenodd" d="M12.3057 22.0417C12.3055 22.1806 12.3395 22.3196 12.4078 22.4448C12.4812 22.6877 12.6616 22.8842 12.8942 22.9793L16.7862 26.8714C17.1143 27.1994 17.6461 27.1994 17.9742 26.8714L18.2046 26.641C18.5326 26.3129 18.5326 25.7811 18.2046 25.453L15.7931 23.0416L31.1609 23.0416C31.6248 23.0416 32.0009 22.6655 32.0009 22.2016L32.0009 21.8757C32.0009 21.4118 31.6248 21.0357 31.1609 21.0357L15.7992 21.0357L18.2122 18.6227C18.5402 18.2947 18.5402 17.7628 18.2122 17.4348L17.9818 17.2043C17.6537 16.8763 17.1219 16.8763 16.7938 17.2043L12.9043 21.0939C12.6626 21.1891 12.4757 21.3932 12.4039 21.6457C12.3382 21.7691 12.3055 21.9054 12.3057 22.0417Z"/>
</mask>
<path fill-rule="evenodd" clip-rule="evenodd" d="M12.3057 22.0417C12.3055 22.1806 12.3395 22.3196 12.4078 22.4448C12.4812 22.6877 12.6616 22.8842 12.8942 22.9793L16.7862 26.8714C17.1143 27.1994 17.6461 27.1994 17.9742 26.8714L18.2046 26.641C18.5326 26.3129 18.5326 25.7811 18.2046 25.453L15.7931 23.0416L31.1609 23.0416C31.6248 23.0416 32.0009 22.6655 32.0009 22.2016L32.0009 21.8757C32.0009 21.4118 31.6248 21.0357 31.1609 21.0357L15.7992 21.0357L18.2122 18.6227C18.5402 18.2947 18.5402 17.7628 18.2122 17.4348L17.9818 17.2043C17.6537 16.8763 17.1219 16.8763 16.7938 17.2043L12.9043 21.0939C12.6626 21.1891 12.4757 21.3932 12.4039 21.6457C12.3382 21.7691 12.3055 21.9054 12.3057 22.0417Z" fill="#292D34"/>
<path d="M12.3057 22.0417L13.1457 22.0404L13.1457 22.0429L12.3057 22.0417ZM12.4078 22.4448L13.1453 22.0427L13.1868 22.1189L13.2119 22.2019L12.4078 22.4448ZM12.8942 22.9793L13.2123 22.2019L13.3686 22.2659L13.4881 22.3854L12.8942 22.9793ZM16.7862 26.8714L16.1923 27.4654L16.1923 27.4654L16.7862 26.8714ZM17.9742 26.8714L17.3802 26.2774L17.3802 26.2774L17.9742 26.8714ZM18.2046 26.641L18.7986 27.2349L18.7986 27.2349L18.2046 26.641ZM18.2046 25.453L18.7986 24.8591L18.7986 24.8591L18.2046 25.453ZM15.7931 23.0416L15.1991 23.6355L13.7652 22.2016L15.7931 22.2016L15.7931 23.0416ZM15.7992 21.0357L15.7992 21.8757L13.7712 21.8757L15.2052 20.4417L15.7992 21.0357ZM18.2122 18.6227L18.8061 19.2167L18.8061 19.2167L18.2122 18.6227ZM18.2122 17.4348L18.8061 16.8408L18.8061 16.8408L18.2122 17.4348ZM17.9818 17.2043L17.3878 17.7983L17.3878 17.7983L17.9818 17.2043ZM16.7938 17.2043L17.3878 17.7983L16.7938 17.2043ZM12.9043 21.0939L13.4983 21.6879L13.3747 21.8114L13.2122 21.8754L12.9043 21.0939ZM12.4039 21.6457L13.212 21.8752L13.1875 21.9615L13.1453 22.0406L12.4039 21.6457ZM13.1457 22.0429L13.1453 22.0427L11.6703 22.847C11.533 22.5952 11.4653 22.3171 11.4657 22.0404L13.1457 22.0429ZM13.2119 22.2019L13.2123 22.2019L12.5761 23.7568C12.1111 23.5665 11.7508 23.1748 11.6037 22.6877L13.2119 22.2019ZM13.4881 22.3854L17.3802 26.2774L16.1923 27.4654L12.3002 23.5733L13.4881 22.3854ZM17.3802 26.2774L17.3802 26.2774L18.5681 27.4654C17.9121 28.1215 16.8483 28.1215 16.1923 27.4654L17.3802 26.2774ZM17.3802 26.2774L17.6106 26.047L18.7986 27.2349L18.5681 27.4654L17.3802 26.2774ZM17.6106 26.047L17.6106 26.047L18.7986 24.8591C19.4546 25.5152 19.4546 26.5789 18.7986 27.2349L17.6106 26.047ZM17.6106 26.047L15.1991 23.6355L16.3871 22.4476L18.7986 24.8591L17.6106 26.047ZM15.7931 22.2016L31.1609 22.2016L31.1609 23.8816L15.7931 23.8816L15.7931 22.2016ZM31.1609 22.2016L31.1609 22.2016L32.8409 22.2016C32.8409 23.1294 32.0887 23.8816 31.1609 23.8816L31.1609 22.2016ZM31.1609 22.2016L31.1609 21.8757L32.8409 21.8757L32.8409 22.2016L31.1609 22.2016ZM31.1609 21.8757L31.1609 21.8757L31.1609 20.1957C32.0887 20.1957 32.8409 20.9479 32.8409 21.8757L31.1609 21.8757ZM31.1609 21.8757L15.7992 21.8757L15.7992 20.1957L31.1609 20.1957L31.1609 21.8757ZM18.8061 19.2167L16.3931 21.6297L15.2052 20.4417L17.6182 18.0287L18.8061 19.2167ZM18.8061 16.8408C19.4622 17.4969 19.4622 18.5606 18.8061 19.2167L17.6182 18.0287L17.6182 18.0287L18.8061 16.8408ZM18.5757 16.6104L18.8061 16.8408L17.6182 18.0287L17.3878 17.7983L18.5757 16.6104ZM16.1998 16.6104C16.8559 15.9543 17.9196 15.9543 18.5757 16.6104L17.3878 17.7983L17.3878 17.7983L16.1998 16.6104ZM12.3103 20.4999L16.1998 16.6104L17.3878 17.7983L13.4983 21.6879L12.3103 20.4999ZM13.2122 21.8754L13.212 21.8752L11.5959 21.4162C11.7398 20.9097 12.1131 20.5028 12.5964 20.3123L13.2122 21.8754ZM11.4657 22.0429C11.4653 21.7715 11.5305 21.4988 11.6625 21.2508L13.1453 22.0406L13.1457 22.0404L11.4657 22.0429Z" fill="#292D34" mask="url(#path-2-inside-1_73_166)"/>
</svg>
