<svg width="33" height="33" viewBox="0 0 33 33" fill="none" xmlns="http://www.w3.org/2000/svg">
<path d="M28.4587 9.16588H26.8314L24.75 5.57069C24.3512 4.8799 23.7774 4.30634 23.0865 3.90774C22.3956 3.50913 21.6119 3.29954 20.8142 3.30005H12.1858C11.3881 3.29954 10.6044 3.50913 9.91349 3.90774C9.22257 4.30634 8.64883 4.8799 8.25 5.57069L6.16858 9.16588H4.54128C3.33686 9.16588 2.18177 9.64433 1.33011 10.496C0.478455 11.3476 0 12.5027 0 13.7072V25.7416C0 26.946 0.478455 28.1011 1.33011 28.9527C2.18177 29.8044 3.33686 30.2829 4.54128 30.2829H28.4587C29.6631 30.2829 30.8182 29.8044 31.6699 28.9527C32.5215 28.1011 33 26.946 33 25.7416V13.7072C33 12.5027 32.5215 11.3476 31.6699 10.496C30.8182 9.64433 29.6631 9.16588 28.4587 9.16588ZM29.9725 25.7416C29.9725 26.143 29.813 26.5281 29.5291 26.812C29.2452 27.0958 28.8602 27.2553 28.4587 27.2553H4.54128C4.13981 27.2553 3.75478 27.0958 3.47089 26.812C3.18701 26.5281 3.02752 26.143 3.02752 25.7416V13.7072C3.02752 13.3057 3.18701 12.9207 3.47089 12.6368C3.75478 12.3529 4.13981 12.1934 4.54128 12.1934H7.03899C7.30701 12.1958 7.57086 12.127 7.80358 11.994C8.03629 11.861 8.22953 11.6686 8.36353 11.4365L10.8991 7.08445C11.0331 6.85233 11.2263 6.65994 11.459 6.52696C11.6918 6.39398 11.9556 6.32517 12.2236 6.32757H20.8142C21.0822 6.32517 21.3461 6.39398 21.5788 6.52696C21.8115 6.65994 22.0048 6.85233 22.1388 7.08445L24.6743 11.4365C24.8083 11.6686 25.0016 11.861 25.2343 11.994C25.467 12.127 25.7308 12.1958 25.9989 12.1934H28.4966C28.898 12.1934 29.2831 12.3529 29.567 12.6368C29.8508 12.9207 30.0103 13.3057 30.0103 13.7072L29.9725 25.7416Z" fill="#7B68EE"/>
<path d="M16.5002 9.80892C14.8909 9.80892 13.3178 10.2861 11.9798 11.1802C10.6417 12.0742 9.59887 13.3449 8.98304 14.8317C8.36721 16.3184 8.20608 17.9544 8.52003 19.5327C8.83398 21.1111 9.6089 22.5608 10.7468 23.6987C11.8847 24.8366 13.3345 25.6116 14.9128 25.9255C16.4911 26.2395 18.1271 26.0783 19.6139 25.4625C21.1006 24.8467 22.3713 23.8038 23.2654 22.4658C24.1594 21.1277 24.6366 19.5546 24.6366 17.9454C24.6366 15.7875 23.7794 13.7179 22.2535 12.192C20.7276 10.6662 18.6581 9.80892 16.5002 9.80892ZM16.5002 23.0543C15.4897 23.0543 14.5019 22.7547 13.6618 22.1933C12.8216 21.6319 12.1668 20.834 11.7801 19.9005C11.3934 18.967 11.2923 17.9397 11.4894 16.9487C11.6865 15.9576 12.1731 15.0473 12.8876 14.3328C13.6021 13.6183 14.5124 13.1317 15.5035 12.9346C16.4945 12.7375 17.5217 12.8387 18.4553 13.2253C19.3888 13.612 20.1867 14.2668 20.7481 15.107C21.3095 15.9472 21.6091 16.9349 21.6091 17.9454C21.6091 19.3004 21.0708 20.5998 20.1127 21.558C19.1546 22.5161 17.8551 23.0543 16.5002 23.0543Z" fill="#7B68EE"/>
</svg>
