<svg xmlns="http://www.w3.org/2000/svg" width="37" height="37" viewBox="0 0 37 37" fill="none"><rect width="37" height="37" fill="#FFF" /><path fill-rule="evenodd" clip-rule="evenodd"
    d="M23.1246 6.16667C23.1246 5.31523 23.8149 4.625 24.6663 4.625H27.7496C30.304 4.625 32.3746 6.69568 32.3746 9.25V27.75C32.3746 30.3043 30.304 32.375 27.7496 32.375H9.24964C6.69532 32.375 4.62464 30.3043 4.62464 27.75V20.0417C4.62464 19.1902 5.31487 18.5 6.16631 18.5C7.01775 18.5 7.70797 19.1902 7.70797 20.0417V27.75C7.70797 28.6014 8.3982 29.2917 9.24964 29.2917H27.7496C28.6011 29.2917 29.2913 28.6014 29.2913 27.75V9.25C29.2913 8.39856 28.6011 7.70833 27.7496 7.70833H24.6663C23.8149 7.70833 23.1246 7.01811 23.1246 6.16667Z"
    fill="#49CCF9" /><path fill-rule="evenodd" clip-rule="evenodd" d="M8.01802 5.85175C7.35316 5.31986 6.383 5.42766 5.85111 6.09252L3.42083 9.13036C2.9704 9.69341 2.9704 10.4935 3.42083 11.0565L5.85111 14.0944C6.383 14.7592 7.35316 14.867 8.01802 14.3351C8.68288 13.8032 8.79068 12.8331 8.25879 12.1682L6.59897 10.0934L8.25879 8.01866C8.79068 7.3538 8.68288 6.38364 8.01802 5.85175Z" fill="#49CCF9" />
  <path fill-rule="evenodd" clip-rule="evenodd" d="M16.3186 5.85175C16.9835 5.31986 17.9536 5.42766 18.4855 6.09252L20.9158 9.13036C21.3662 9.69341 21.3662 10.4935 20.9158 11.0565L18.4855 14.0944C17.9536 14.7592 16.9835 14.867 16.3186 14.3351C15.6537 13.8032 15.5459 12.8331 16.0778 12.1682L17.7376 10.0934L16.0778 8.01866C15.5459 7.3538 15.6537 6.38364 16.3186 5.85175Z" fill="#49CCF9" />
  <path fill-rule="evenodd" clip-rule="evenodd" d="M14.0166 3.29629C14.8382 3.51957 15.3233 4.36665 15.1 5.18829L12.2143 15.8067C11.9911 16.6284 11.144 17.1134 10.3223 16.8901C9.5007 16.6668 9.01564 15.8198 9.23892 14.9981L12.1246 4.3797C12.3478 3.55806 13.1949 3.073 14.0166 3.29629Z" fill="#49CCF9" />
</svg>