<svg width="38" height="38" viewBox="0 0 38 38" fill="none" xmlns="http://www.w3.org/2000/svg">
<path fill-rule="evenodd" clip-rule="evenodd" d="M24.0897 7.88231C22.9972 7.88231 22.0067 8.30464 21.2671 8.99793C20.6409 9.58497 19.6573 9.55319 19.0703 8.92696C18.4833 8.30073 18.515 7.31718 19.1413 6.73015C20.4341 5.51827 22.1766 4.77393 24.0897 4.77393C28.0864 4.77393 31.3264 8.01391 31.3264 12.0106C31.3264 14.0696 30.4665 15.9277 29.0863 17.2455C32.6442 18.9108 35.2266 22.3002 35.7341 26.3388C35.8411 27.1905 35.2375 27.9677 34.3858 28.0747C33.5342 28.1817 32.757 27.5781 32.65 26.7264C32.1214 22.52 28.4977 19.2473 24.0897 19.2473C23.2313 19.2473 22.5355 18.5515 22.5355 17.6932C22.5355 16.8348 23.2313 16.139 24.0897 16.139C26.3697 16.139 28.218 14.2906 28.218 12.0106C28.218 9.73062 26.3697 7.88231 24.0897 7.88231ZM13.2102 12.5449C10.9302 12.5449 9.08186 14.3932 9.08186 16.6732C9.08186 18.9532 10.9302 20.8015 13.2102 20.8015C15.4902 20.8015 17.3385 18.9532 17.3385 16.6732C17.3385 14.3932 15.4902 12.5449 13.2102 12.5449ZM18.2068 21.9081C19.587 20.5903 20.4469 18.7322 20.4469 16.6732C20.4469 12.6765 17.2069 9.4365 13.2102 9.4365C9.21346 9.4365 5.97348 12.6765 5.97348 16.6732C5.97348 18.7322 6.83333 20.5903 8.21355 21.9081C4.6558 23.5734 2.07353 26.9628 1.56601 31.0014C1.45898 31.8531 2.06262 32.6302 2.91428 32.7373C3.76593 32.8443 4.5431 32.2407 4.65013 31.389C5.17876 27.1825 8.80223 23.9099 13.2102 23.9099C17.6182 23.9099 21.2419 27.1826 21.7705 31.389C21.8775 32.2407 22.6547 32.8443 23.5064 32.7373C24.358 32.6302 24.9617 31.8531 24.8546 31.0014C24.3471 26.9628 21.7647 23.5734 18.2068 21.9081Z" fill="#9B51E0"/>
</svg>
