<svg width="142" height="47" viewBox="0 0 142 47" fill="none" xmlns="http://www.w3.org/2000/svg">
<path d="M50.2365 18.6897H47.1559V21.3816H50.2365V18.6897Z" fill="black"/>
<path d="M50.2365 23.6424H47.1559V28.6515H50.2365V23.6424Z" fill="black"/>
<path d="M30.8484 38.0108C28.8872 38.8407 26.8025 39.2616 24.6517 39.2616C22.501 39.2616 20.4163 38.8407 18.455 38.0108C16.5592 37.2085 14.8562 36.0591 13.3929 34.5956C11.9296 33.132 10.7815 31.4275 9.9796 29.5306C9.1501 27.5682 8.72943 25.4823 8.72943 23.3304C8.72943 21.1785 9.1501 19.0926 9.9796 17.1302C10.7104 15.4014 11.7294 13.8329 13.0117 12.4602L26.1748 33.3864H29.9936L14.007 7.94531C9.13939 11.3233 5.95166 16.9542 5.95166 23.3304C5.95166 33.664 14.3239 42.041 24.6517 42.041C27.9889 42.041 31.1214 41.1664 33.8337 39.6335L32.3659 37.2722C31.8753 37.5442 31.3689 37.7907 30.8484 38.0108Z" fill="black"/>
<path d="M15.4725 24.5621H19.2913L17.6452 21.9407H13.8259L15.4725 24.5621Z" fill="black"/>
<path d="M16.0479 25.4778L21.0852 33.4987H24.9039L19.8666 25.4778H16.0479Z" fill="black"/>
<path d="M24.6518 4.61981C21.0614 4.61981 17.7079 5.63258 14.8596 7.3873L16.3382 9.73839C17.0126 9.32482 17.7192 8.9609 18.4545 8.64945C20.4157 7.81949 22.5005 7.39858 24.6512 7.39858C26.8019 7.39858 28.8867 7.81949 30.8479 8.64945C32.7437 9.45177 34.4467 10.6011 35.91 12.0647C37.3734 13.5288 38.5215 15.2327 39.3233 17.1296C40.1528 19.092 40.5735 21.1779 40.5735 23.3298C40.5735 25.4818 40.1528 27.5677 39.3233 29.53C38.5215 31.4269 37.3728 33.1309 35.91 34.595C35.8723 34.6328 35.8339 34.6706 35.7956 34.7084L31.7896 28.2741C33.5163 27.2066 34.8595 25.2549 35.0664 22.8875C35.2875 20.3609 34.0249 18.5295 34.0249 18.5295C31.9419 15.1188 28.4073 15.182 28.4073 15.182H28.3126H27.9337H27.5993H27.5592H19.7283L21.843 18.5295H27.7244H27.9342H28.25C29.9671 18.5295 31.5364 20.0094 31.7535 21.6874C32.0315 23.8371 30.7306 24.974 30.2011 25.3418C30.0748 25.4298 29.9248 25.4767 29.7708 25.4767H26.167L33.2445 36.7469C33.2428 36.7481 33.2417 36.7492 33.24 36.7497L34.7185 39.1008C39.9103 35.7765 43.3518 29.9554 43.3518 23.3304C43.3513 12.9967 34.979 4.61981 24.6518 4.61981Z" fill="black"/>
<path d="M63.4408 25.7407C63.2327 25.5421 63.0438 25.3785 62.8752 25.2493C63.2818 25.1697 63.6466 25.0332 63.9692 24.8397C64.2917 24.6461 64.5647 24.4103 64.788 24.1321C65.0113 23.8546 65.1821 23.5414 65.3011 23.1939C65.4201 22.8463 65.4799 22.479 65.4799 22.0919C65.4799 21.3771 65.3186 20.7914 64.9961 20.335C64.6735 19.8785 64.2641 19.5157 63.7684 19.2477C63.2722 18.9797 62.7213 18.7935 62.1168 18.6891C61.5117 18.5848 60.9264 18.5329 60.3608 18.5329H53.9611L51.9519 21.1237H60.6134C61.1491 21.1237 61.5658 21.2208 61.8636 21.4143C62.1613 21.6078 62.3102 21.8984 62.3102 22.2855C62.3102 22.633 62.1467 22.9061 61.819 23.1047C61.4914 23.3033 61.0899 23.4026 60.6134 23.4026H51.9519V28.4952H55.0325V25.8598H59.7648L61.982 28.4952H66.1041L64.2737 26.5594C63.9269 26.2124 63.6489 25.9393 63.4408 25.7407Z" fill="black"/>
<path d="M79.3276 19.606C78.1124 18.7822 76.2938 18.3704 73.8735 18.3704C71.4426 18.3704 69.6223 18.7822 68.4116 19.606C67.2009 20.4303 66.5958 21.7303 66.5958 23.507C66.5958 25.2939 67.1986 26.5995 68.4043 27.4232C69.6099 28.2476 71.433 28.6589 73.8735 28.6589C76.3039 28.6589 78.1248 28.247 79.3355 27.4232C80.5456 26.5995 81.1512 25.2939 81.1512 23.507C81.1507 21.7303 80.5428 20.4303 79.3276 19.606ZM77.8614 24.8103C77.7126 25.1432 77.4718 25.4039 77.1396 25.5923C76.8069 25.7814 76.3733 25.9077 75.8376 25.9721C75.3019 26.037 74.6472 26.0685 73.873 26.0685C73.0993 26.0685 72.444 26.0364 71.9083 25.9721C71.3726 25.9077 70.9384 25.7808 70.6063 25.5923C70.2736 25.4039 70.0334 25.1432 69.8845 24.8103C69.7356 24.478 69.6612 24.0436 69.6612 23.5076C69.6612 22.9716 69.7356 22.5377 69.8845 22.2048C70.0334 21.8725 70.2736 21.614 70.6063 21.4307C70.9384 21.2473 71.3726 21.1232 71.9083 21.0583C72.444 20.994 73.0987 20.9612 73.873 20.9612C74.6466 20.9612 75.3019 20.9934 75.8376 21.0583C76.3733 21.1232 76.8075 21.2467 77.1396 21.4307C77.4718 21.6146 77.7126 21.8725 77.8614 22.2048C78.0103 22.5377 78.0847 22.9716 78.0847 23.5076C78.0847 24.043 78.0103 24.4775 77.8614 24.8103Z" fill="black"/>
<path d="M86.3741 21.8025C86.6318 21.5892 86.9397 21.4228 87.2966 21.3037C87.6536 21.1847 88.041 21.1249 88.4571 21.1249H93.4572L95.4365 18.534H88.4571C87.5938 18.534 86.7953 18.6508 86.0611 18.8838C85.3269 19.1174 84.6942 19.4497 84.1636 19.8813C83.6329 20.313 83.2162 20.8292 82.9134 21.4301C82.6106 22.031 82.4595 22.6934 82.4595 23.4178C82.4595 24.1423 82.6106 24.8154 82.9134 25.4355C83.2157 26.0561 83.6324 26.5921 84.1636 27.0435C84.6942 27.4955 85.3269 27.8503 86.0611 28.1082C86.7953 28.3666 87.5938 28.4952 88.4571 28.4952H93.4572L95.4365 25.9343H88.4571C88.0404 25.9343 87.6536 25.8773 87.2966 25.7627C86.9397 25.6488 86.629 25.4874 86.3667 25.2786C86.104 25.0704 85.9004 24.8194 85.7566 24.5265C85.6128 24.2337 85.5406 23.9087 85.5406 23.551C85.5406 23.1933 85.6151 22.866 85.7639 22.5681C85.9128 22.2714 86.1158 22.0158 86.3741 21.8025Z" fill="black"/>
<path d="M103.429 23.9685C103.022 23.6706 102.675 23.4229 102.387 23.2238C102.546 23.1245 102.707 23.0206 102.871 22.9112C103.035 22.8023 103.216 22.6782 103.414 22.5388C103.613 22.4 103.838 22.2364 104.091 22.0474C104.344 21.8589 104.634 21.6406 104.962 21.3923L108.772 18.5334H104.307L101.435 20.9607C100.979 21.3381 100.609 21.6581 100.327 21.921C100.044 22.1839 99.8034 22.4051 99.6049 22.5834C99.6246 22.3255 99.6393 22.0474 99.6494 21.7495C99.659 21.4516 99.6641 21.1491 99.6641 20.8411V18.5329H96.5688V28.4947H99.6641V25.6358C99.6641 25.3977 99.659 25.1568 99.6494 24.9136C99.6393 24.6704 99.6297 24.4346 99.6195 24.2061C99.7882 24.3748 100.009 24.5835 100.282 24.8312C100.555 25.0795 100.949 25.427 101.465 25.8733L104.471 28.4941H109.129L105.006 25.2036C104.361 24.6789 103.835 24.2664 103.429 23.9685Z" fill="black"/>
<path d="M113.295 24.579H119.412L121.183 22.3159H113.295V21.1249H119.739L121.734 18.534H110.2V28.4952H119.784L121.763 25.9343H113.295V24.579Z" fill="black"/>
<path d="M135.172 26.56C134.824 26.2124 134.547 25.9399 134.338 25.7413C134.13 25.5427 133.941 25.3791 133.773 25.2499C134.179 25.1703 134.544 25.0338 134.867 24.8402C135.189 24.6467 135.462 24.4109 135.685 24.1327C135.909 23.8551 136.08 23.542 136.199 23.1944C136.318 22.8469 136.377 22.4796 136.377 22.0925C136.377 21.3776 136.216 20.792 135.894 20.3355C135.571 19.8791 135.162 19.5163 134.666 19.2483C134.17 18.9803 133.619 18.7941 133.014 18.6897C132.409 18.5853 131.824 18.5334 131.258 18.5334H124.859L122.85 21.1243H131.511C132.047 21.1243 132.464 21.2213 132.762 21.4149C133.059 21.6084 133.208 21.899 133.208 22.286C133.208 22.6336 133.045 22.9067 132.717 23.1053C132.389 23.3039 131.988 23.4032 131.511 23.4032H122.85V28.4958H125.931V25.8603H130.663L132.88 28.4958H137.002L135.172 26.56Z" fill="black"/>
</svg>
