<svg width="91" height="21" viewBox="0 0 91 21" fill="none" xmlns="http://www.w3.org/2000/svg">
<g clip-path="url(#clip0_1_2217)">
<path d="M90.1352 19.7687H86.8856V4.09097C86.7857 4.09097 86.8356 4.09097 86.7357 4.04104C86.4857 4.4904 86.2357 4.88983 85.9858 5.33919C84.586 7.73579 83.2362 10.1324 81.7864 12.529C80.4866 14.7758 77.487 14.7758 76.1372 12.529C74.6374 9.93267 73.1376 7.28643 71.6378 4.69011C71.4879 4.44047 71.3879 4.24075 71.1379 4.04104V19.8186H67.8384C67.8384 19.6189 67.8384 19.4192 67.8384 19.2195C67.8384 14.0768 67.8384 8.98402 67.8384 3.84132C67.8384 2.24359 68.7382 0.945429 70.138 0.595925C71.5878 0.246422 72.9876 0.595925 73.8875 2.19366C75.4373 4.93976 77.0371 7.73579 78.6368 10.4819C78.7368 10.6317 78.8368 10.8314 78.9868 11.081C79.5867 10.0325 80.1366 9.08388 80.6865 8.13523C81.7864 6.18799 82.9362 4.24075 84.0361 2.24359C84.736 0.995359 85.8358 0.396209 87.2856 0.545996C88.6854 0.645855 89.5353 1.39479 90.0352 2.64302C90.0852 2.84274 90.1852 3.14231 90.1852 3.2921V19.7687H90.1352Z" fill="black"/>
<path d="M0.547852 4.34063C0.547852 3.5917 0.69783 2.79283 1.09777 2.09382C1.19776 1.89411 1.29774 1.64446 1.49772 1.49467C2.9975 -0.152987 5.54713 0.146587 6.64698 2.09382C9.19661 6.48759 11.6963 10.8814 14.2459 15.2751C14.4459 15.6246 14.6458 15.9741 14.9458 16.2737V0.496091H18.1953C18.1953 0.695808 18.2453 0.895524 18.2453 1.09524C18.2453 6.23794 18.1953 11.3806 18.2453 16.5233C18.2453 18.2209 17.0455 19.4192 15.8457 19.7188C14.3959 20.0683 12.9461 19.4692 12.1462 18.0711C9.49657 13.5276 6.89694 8.98405 4.29731 4.44049C4.19733 4.29071 4.09734 4.14092 3.94736 3.89127V19.7687H0.547852C0.547852 14.626 0.547852 9.48334 0.547852 4.34063Z" fill="black"/>
<path d="M30.5435 20.1182C29.9436 19.9684 29.3437 19.8187 28.7937 19.6689C23.4445 18.171 20.295 12.3293 22.0947 7.08672C23.4445 3.24218 26.1941 0.845581 30.2435 0.296361C36.1427 -0.552435 40.542 3.39197 41.5419 8.33495C42.5418 13.5276 39.0423 18.7202 33.893 19.8187C33.4431 19.9185 32.9431 20.0184 32.4932 20.1182C31.8433 20.1182 31.1934 20.1182 30.5435 20.1182ZM25.0943 10.0825C24.9943 13.5775 27.7439 16.8229 31.6433 16.8229C35.3428 16.8229 38.2424 13.8771 38.2424 10.0825C38.2424 6.33779 35.3428 3.39197 31.6933 3.34204C27.8939 3.34204 24.9943 6.58743 25.0943 10.0825Z" fill="black"/>
<path d="M53.5401 20.1182C53.1901 20.0683 52.8902 19.9684 52.5402 19.9185C47.8409 19.0198 44.4414 14.9256 44.4414 10.1324C44.4414 5.1894 48.1409 0.845567 53.0402 0.246417C59.0393 -0.50252 63.4887 3.54174 64.2886 8.38487C64.8385 11.6303 63.9886 14.5261 61.6889 16.9727C60.0392 18.7202 57.9895 19.7188 55.6398 20.0184C55.5898 20.0184 55.4898 20.0683 55.4398 20.1182C54.7899 20.1182 54.14 20.1182 53.5401 20.1182ZM54.49 3.39195C50.8405 3.34202 47.8909 6.23791 47.8409 9.88274C47.7409 13.6774 50.5905 16.773 54.34 16.8229C58.0395 16.8728 60.989 13.9769 61.039 10.2322C61.039 6.3877 58.1894 3.44188 54.49 3.39195Z" fill="black"/>
</g>
<defs>
<clipPath id="clip0_1_2217">
<rect width="89.5871" height="19.9717" fill="white" transform="translate(0.547852 0.156677)"/>
</clipPath>
</defs>
</svg>
