<svg width="114" height="39" viewBox="0 0 114 39" fill="none" xmlns="http://www.w3.org/2000/svg">
<path d="M39.7809 15.7144H37.312V17.8718H39.7809V15.7144Z" fill="black"/>
<path d="M39.7809 19.6837H37.312V23.6981H39.7809V19.6837Z" fill="black"/>
<path d="M24.2427 31.199C22.6709 31.8641 21.0001 32.2015 19.2765 32.2015C17.5528 32.2015 15.882 31.8641 14.3102 31.199C12.7908 30.556 11.426 29.6349 10.2532 28.4619C9.08046 27.2889 8.16033 25.9229 7.51769 24.4026C6.8529 22.8299 6.51576 21.1582 6.51576 19.4336C6.51576 17.709 6.8529 16.0372 7.51769 14.4645C8.10339 13.079 8.92003 11.822 9.94771 10.7218L20.4971 27.4929H23.5576L10.7454 7.10344C6.84431 9.81066 4.28955 14.3235 4.28955 19.4336C4.28955 27.7153 10.9994 34.4289 19.2765 34.4289C21.951 34.4289 24.4614 33.728 26.6352 32.4994L25.4589 30.6071C25.0657 30.825 24.6598 31.0226 24.2427 31.199Z" fill="black"/>
<path d="M11.9202 20.4207H14.9807L13.6615 18.3199H10.6006L11.9202 20.4207Z" fill="black"/>
<path d="M12.3804 21.1546L16.4175 27.5828H19.4779L15.4408 21.1546H12.3804Z" fill="black"/>
<path d="M19.276 4.43826C16.3985 4.43826 13.7109 5.24993 11.4282 6.65622L12.6132 8.54048C13.1537 8.20903 13.72 7.91737 14.3093 7.66776C15.8811 7.0026 17.5519 6.66527 19.2755 6.66527C20.9992 6.66527 22.67 7.0026 24.2418 7.66776C25.7612 8.31077 27.126 9.23187 28.2988 10.4048C29.4715 11.5782 30.3917 12.9438 31.0343 14.4641C31.6991 16.0368 32.0362 17.7085 32.0362 19.4331C32.0362 21.1578 31.6991 22.8295 31.0343 24.4022C30.3917 25.9224 29.4711 27.288 28.2988 28.4614C28.2685 28.4917 28.2378 28.522 28.207 28.5523L24.9965 23.3956C26.3803 22.5401 27.4568 20.976 27.6227 19.0786C27.7998 17.0537 26.788 15.586 26.788 15.586C25.1185 12.8525 22.2858 12.9031 22.2858 12.9031H22.2099H21.9062H21.6382H21.6061H15.3302L17.0249 15.586H21.7386H21.9067H22.1598C23.5359 15.586 24.7936 16.772 24.9676 18.1168C25.1904 19.8396 24.1478 20.7508 23.7234 21.0456C23.6222 21.1162 23.502 21.1537 23.3786 21.1537H20.4903L26.1625 30.1861C26.1611 30.187 26.1602 30.1879 26.1589 30.1883L27.3438 32.0726C31.5048 29.4083 34.2629 24.7431 34.2629 19.4336C34.2624 11.1518 27.5526 4.43826 19.276 4.43826Z" fill="black"/>
<path d="M50.3629 21.3653C50.1961 21.2062 50.0447 21.075 49.9096 20.9715C50.2355 20.9077 50.5279 20.7983 50.7864 20.6432C51.0449 20.4881 51.2636 20.2991 51.4426 20.0761C51.6215 19.8537 51.7585 19.6027 51.8538 19.3242C51.9492 19.0456 51.9971 18.7512 51.9971 18.441C51.9971 17.8681 51.8678 17.3988 51.6093 17.0329C51.3508 16.6671 51.0227 16.3764 50.6255 16.1616C50.2278 15.9468 49.7862 15.7976 49.3018 15.7139C48.8168 15.6303 48.3477 15.5887 47.8945 15.5887H42.7655L41.1553 17.6651H48.0969C48.5263 17.6651 48.8602 17.7429 49.0988 17.898C49.3375 18.0531 49.4568 18.2859 49.4568 18.5961C49.4568 18.8747 49.3257 19.0935 49.0631 19.2527C48.8006 19.4119 48.4788 19.4915 48.0969 19.4915H41.1553V23.5729H43.6242V21.4607H47.4168L49.1938 23.5729H52.4974L51.0304 22.0214C50.7525 21.7433 50.5297 21.5245 50.3629 21.3653Z" fill="black"/>
<path d="M63.0953 16.4487C62.1214 15.7885 60.6639 15.4585 58.7242 15.4585C56.7759 15.4585 55.3171 15.7885 54.3468 16.4487C53.3765 17.1094 52.8916 18.1512 52.8916 19.5751C52.8916 21.0072 53.3747 22.0536 54.3409 22.7137C55.3072 23.3744 56.7683 23.704 58.7242 23.704C60.672 23.704 62.1313 23.3739 63.1016 22.7137C64.0714 22.0536 64.5568 21.0072 64.5568 19.5751C64.5564 18.1512 64.0692 17.1094 63.0953 16.4487ZM61.9203 20.6197C61.801 20.8865 61.608 21.0954 61.3418 21.2464C61.0752 21.3979 60.7276 21.4992 60.2983 21.5507C59.8689 21.6027 59.3443 21.628 58.7238 21.628C58.1037 21.628 57.5786 21.6023 57.1492 21.5507C56.7199 21.4992 56.3719 21.3974 56.1057 21.2464C55.8391 21.0954 55.6466 20.8865 55.5273 20.6197C55.408 20.3533 55.3483 20.0052 55.3483 19.5756C55.3483 19.146 55.408 18.7983 55.5273 18.5315C55.6466 18.2652 55.8391 18.0581 56.1057 17.9111C56.3719 17.7641 56.7199 17.6647 57.1492 17.6127C57.5786 17.5611 58.1033 17.5349 58.7238 17.5349C59.3438 17.5349 59.8689 17.5607 60.2983 17.6127C60.7276 17.6647 61.0756 17.7637 61.3418 17.9111C61.608 18.0585 61.801 18.2652 61.9203 18.5315C62.0396 18.7983 62.0992 19.146 62.0992 19.5756C62.0992 20.0047 62.0396 20.3529 61.9203 20.6197Z" fill="black"/>
<path d="M68.7428 18.2091C68.9493 18.0381 69.1961 17.9048 69.4821 17.8093C69.7682 17.7139 70.0787 17.666 70.4122 17.666H74.4195L76.0057 15.5896H70.4122C69.7203 15.5896 69.0804 15.6832 68.4919 15.8699C67.9035 16.0571 67.3965 16.3235 66.9712 16.6694C66.5459 17.0153 66.212 17.4291 65.9693 17.9106C65.7266 18.3922 65.6055 18.9231 65.6055 19.5037C65.6055 20.0843 65.7266 20.6237 65.9693 21.1207C66.2115 21.6181 66.5455 22.0477 66.9712 22.4094C67.3965 22.7716 67.9035 23.056 68.4919 23.2627C69.0804 23.4698 69.7203 23.5729 70.4122 23.5729H74.4195L76.0057 21.5204H70.4122C70.0782 21.5204 69.7682 21.4747 69.4821 21.383C69.1961 21.2916 68.947 21.1623 68.7369 20.995C68.5263 20.8281 68.3631 20.6269 68.2479 20.3922C68.1327 20.1575 68.0748 19.8971 68.0748 19.6104C68.0748 19.3237 68.1345 19.0614 68.2538 18.8227C68.3731 18.5848 68.5358 18.38 68.7428 18.2091Z" fill="black"/>
<path d="M82.4108 19.945C82.0845 19.7063 81.8066 19.5077 81.5761 19.3481C81.7031 19.2685 81.8323 19.1853 81.9639 19.0976C82.0949 19.0103 82.24 18.9109 82.3991 18.7992C82.5581 18.6879 82.7389 18.5568 82.9418 18.4053C83.1448 18.2543 83.377 18.0793 83.6396 17.8803L86.6929 15.5891H83.1149L80.8132 17.5344C80.4476 17.8369 80.1512 18.0933 79.9247 18.304C79.6983 18.5148 79.5054 18.692 79.3463 18.8349C79.3621 18.6282 79.3738 18.4053 79.382 18.1666C79.3897 17.9278 79.3937 17.6854 79.3937 17.4386V15.5887H76.9131V23.5724H79.3937V21.2812C79.3937 21.0904 79.3897 20.8973 79.382 20.7024C79.3738 20.5075 79.3662 20.3185 79.358 20.1354C79.4932 20.2706 79.6699 20.4379 79.8886 20.6364C80.1073 20.8354 80.4232 21.1139 80.8367 21.4716L83.246 23.572H86.9789L83.6753 20.9348C83.1583 20.5143 82.7367 20.1838 82.4108 19.945Z" fill="black"/>
<path d="M90.318 20.4343H95.2201L96.6392 18.6206H90.318V17.666H95.4823L97.0807 15.5896H87.8374V23.5729H95.5184L97.1047 21.5204H90.318V20.4343Z" fill="black"/>
<path d="M107.851 22.0219C107.572 21.7433 107.35 21.5249 107.183 21.3658C107.016 21.2066 106.865 21.0755 106.729 20.9719C107.055 20.9082 107.348 20.7987 107.606 20.6436C107.865 20.4885 108.083 20.2995 108.262 20.0766C108.441 19.8541 108.578 19.6032 108.674 19.3246C108.769 19.0461 108.817 18.7517 108.817 18.4415C108.817 17.8686 108.688 17.3992 108.429 17.0334C108.171 16.6676 107.843 16.3768 107.445 16.162C107.048 15.9473 106.606 15.798 106.122 15.7144C105.637 15.6307 105.168 15.5891 104.714 15.5891H99.5858L97.9756 17.6656H104.917C105.347 17.6656 105.681 17.7433 105.919 17.8984C106.158 18.0535 106.277 18.2864 106.277 18.5966C106.277 18.8751 106.146 19.094 105.883 19.2532C105.621 19.4123 105.299 19.4919 104.917 19.4919H97.9756V23.5733H100.444V21.4612H104.237L106.014 23.5733H109.318L107.851 22.0219Z" fill="black"/>
</svg>
