<svg width="34" height="28" viewBox="0 0 34 28" fill="none" xmlns="http://www.w3.org/2000/svg">
<path d="M33.6803 3.40609V3.43771V23.7868V23.8454L33.6542 23.8979C33.6392 23.9282 33.6267 23.9597 33.6167 23.9922C33.3139 25.5217 32.0736 26.7103 30.6056 26.8244L30.6055 26.8244C28.9685 26.9507 27.6121 26.064 27.0303 24.52C27.0137 24.4839 26.9906 24.4517 26.9627 24.4251C26.935 24.3987 26.903 24.3782 26.8686 24.3645C25.7356 24.0202 24.6023 23.6823 23.4681 23.3441C22.6746 23.1075 21.8807 22.8708 21.0862 22.6317C21.0529 22.6217 21.0311 22.617 21.0169 22.615C21.0093 22.625 20.9982 22.6419 20.9838 22.6692L20.9837 22.6693C19.9496 24.6246 18.3403 25.7723 16.1746 26.0603C12.9149 26.4944 9.78428 24.0887 9.3057 20.7798L9.30563 20.7793C9.24611 20.3621 9.23205 19.9279 9.21819 19.4999C9.21387 19.3662 9.20956 19.2331 9.20389 19.1013C9.03994 19.0523 8.87526 19.0029 8.70995 18.9533C8.01362 18.7445 7.30606 18.5323 6.59489 18.3337C6.48405 18.3077 6.36794 18.3185 6.26311 18.3649C5.99169 18.492 5.72413 18.6305 5.4518 18.7718L5.42692 18.7847C5.16371 18.9213 4.89577 19.0604 4.62284 19.1896C4.02831 19.4787 3.35074 19.5357 2.71767 19.3496C2.08428 19.1633 1.54054 18.7471 1.18738 18.1806L1.18629 18.1789L1.1863 18.1789C1.08707 18.0167 1.01352 17.8444 0.950153 17.6807C0.924543 17.6145 0.901472 17.5523 0.879124 17.4921C0.843167 17.3951 0.809085 17.3033 0.769323 17.2081L0.75 17.1618V17.1117V10.1128V10.0406L0.788473 9.97958C0.798793 9.96319 0.807542 9.94572 0.81456 9.92741C1.03928 9.02899 1.59246 8.35522 2.30935 8.01055C3.03027 7.66393 3.89794 7.65937 4.72459 8.06623C4.72464 8.06626 4.7247 8.06629 4.72475 8.06631L4.61434 8.29061C4.82612 8.39466 5.03587 8.50329 5.24563 8.61192C5.54372 8.76629 5.84181 8.92066 6.14573 9.06192L33.6803 3.40609ZM33.6803 3.40609L33.6724 3.37548C33.5934 3.06807 33.499 2.76503 33.3895 2.46754L33.3899 2.46741L33.3843 2.45461C32.8109 1.12894 31.5414 0.338805 30.1052 0.390042L30.104 0.390088C29.433 0.417099 28.7856 0.647914 28.2439 1.05239C27.7023 1.4568 27.2912 2.01638 27.0617 2.65941L27.0589 2.66721L27.0566 2.67517C27.0418 2.72749 27.0134 2.77389 26.9755 2.80971L27.147 2.99156L26.9755 2.80971C26.9376 2.84548 26.8915 2.86937 26.8424 2.87958L26.8322 2.88171L26.8222 2.88467C20.0775 4.88632 13.3308 6.88308 6.58217 8.87493L33.6803 3.40609ZM29.4451 13.611V13.6109C29.4445 10.4605 29.4445 7.30868 29.4451 4.15539H29.4452L29.4449 4.14702C29.4413 4.03672 29.4431 3.92629 29.4504 3.81617C29.4648 3.6064 29.5555 3.41102 29.7027 3.26825C29.8499 3.12557 30.0429 3.04576 30.243 3.04287C30.4432 3.03999 30.6382 3.11421 30.7891 3.2525L30.958 3.06817L30.7891 3.2525C30.9402 3.39095 31.0362 3.58369 31.0562 3.79307L31.0564 3.79538C31.0666 3.89218 31.0707 3.98955 31.0686 4.08689L31.0686 4.08689V4.09215V4.12934V4.16654V4.20374V4.24093V4.27813V4.31533V4.35252V4.38972V4.42692V4.46411V4.50131V4.53851V4.5757V4.6129V4.65009V4.68729V4.72449V4.76168V4.79888V4.83608V4.87327V4.91047V4.94767V4.98486V5.02206V5.05926V5.09645V5.13365V5.17084V5.20804V5.24524V5.28243V5.31963V5.35683V5.39402V5.43122V5.46842V5.50561V5.54281V5.58001V5.6172V5.6544V5.69159V5.72879V5.76599V5.80318V5.84038V5.87758V5.91477V5.95197V5.98917V6.02636V6.06356V6.10076V6.13795V6.17515V6.21235V6.24954V6.28674V6.32393V6.36113V6.39833V6.43552V6.47272V6.50992V6.54711V6.58431V6.62151V6.6587V6.6959V6.7331V6.77029V6.80749V6.84468V6.88188V6.91908V6.95627V6.99347V7.03067V7.06786V7.10506V7.14226V7.17945V7.21665V7.25385V7.29104V7.32824V7.36543V7.40263V7.43983V7.47702V7.51422V7.55142V7.58861V7.62581V7.66301V7.7002V7.7374V7.7746V7.81179V7.84899V7.88618V7.92338V7.96058V7.99777V8.03497V8.07217V8.10936V8.14656V8.18376V8.22095V8.25815V8.29535V8.33254V8.36974V8.40693V8.44413V8.48133V8.51852V8.55572V8.59292V8.63011V8.66731V8.70451V8.7417V8.7789V8.8161V8.85329V8.89049V8.92768V8.96488V9.00208V9.03927V9.07647V9.11367V9.15086V9.18806V9.22526V9.26245V9.29965V9.33685V9.37404V9.41124V9.44843V9.48563V9.52283V9.56002V9.59722V9.63442V9.67161V9.70881V9.74601V9.7832V9.8204V9.8576V9.89479V9.93199V9.96918V10.0064V10.0436V10.0808V10.118V10.1552V10.1924V10.2296V10.2668V10.304V10.3411V10.3783V10.4155V10.4527V10.4899V10.5271V10.5643V10.6015V10.6387V10.6759V10.7131V10.7503V10.7875V10.8247V10.8619V10.8991V10.9363V10.9735V11.0107V11.0479V11.0851V11.1223V11.1595V11.1967V11.2339V11.2711V11.3083V11.3455V11.3826V11.4198V11.457V11.4942V11.5314V11.5686V11.6058V11.643V11.6802V11.7174V11.7546V11.7918V11.829V11.8662V11.9034V11.9406V11.9778V12.015V12.0522V12.0894V12.1266V12.1638V12.201V12.2382V12.2754V12.3126V12.3498V12.387V12.4241V12.4613V12.4985V12.5357V12.5729V12.6101V12.6473V12.6845V12.7217V12.7589V12.7961V12.8333V12.8705V12.9077V12.9449V12.9821V13.0193V13.0565V13.0937V13.1309V13.1681V13.2053V13.2425V13.2797V13.3169V13.3541V13.3913V13.4285V13.4656V13.5028V13.54V13.5772V13.6144V13.6516V13.6888V13.726V13.7632V13.8004V13.8376V13.8748V13.912V13.9492V13.9864V14.0236V14.0608V14.098V14.1352V14.1724V14.2096V14.2468V14.284V14.3212V14.3584V14.3956V14.4328V14.47V14.5071V14.5443V14.5815V14.6187V14.6559V14.6931V14.7303V14.7675V14.8047V14.8419V14.8791V14.9163V14.9535V14.9907V15.0279V15.0651V15.1023V15.1395V15.1767V15.2139V15.2511V15.2883V15.3255V15.3627V15.3999V15.4371V15.4743V15.5115V15.5486V15.5858V15.623V15.6602V15.6974V15.7346V15.7718V15.809V15.8462V15.8834V15.9206V15.9578V15.995V16.0322V16.0694V16.1066V16.1438V16.181V16.2182V16.2554V16.2926V16.3298V16.367V16.4042V16.4414V16.4786V16.5158V16.553V16.5901V16.6273V16.6645V16.7017V16.7389V16.7761V16.8133V16.8505V16.8877V16.9249V16.9621V16.9993V17.0365V17.0737V17.1109V17.1481V17.1853V17.2225V17.2597V17.2969V17.3341V17.3713V17.4085V17.4457V17.4829V17.5201V17.5573V17.5945V17.6317V17.6688V17.706V17.7432V17.7804V17.8176V17.8548V17.892V17.9292V17.9664V18.0036V18.0408V18.078V18.1152V18.1524V18.1896V18.2268V18.264V18.3012V18.3384V18.3756V18.4128V18.45V18.4872V18.5244V18.5616V18.5988V18.636V18.6732V18.7103V18.7475V18.7847V18.8219V18.8591V18.8963V18.9335V18.9707V19.0079V19.0451V19.0823V19.1195V19.1567V19.1939V19.2311V19.2683V19.3055V19.3427V19.3799V19.4171V19.4543V19.4915V19.5287V19.5659V19.6031V19.6403V19.6775V19.7147V19.7518V19.789V19.8262V19.8634V19.9006V19.9378V19.975V20.0122V20.0494V20.0866V20.1238V20.161V20.1982V20.2354V20.2726V20.3098V20.347V20.3842V20.4214V20.4586V20.4958V20.533V20.5702V20.6074V20.6446V20.6818V20.719V20.7562V20.7933V20.8305V20.8677V20.9049V20.9421V20.9793V21.0165V21.0537V21.0909V21.1281V21.1653V21.2025V21.2397V21.2769V21.3141V21.3513V21.3885V21.4257V21.4629V21.5001V21.5373V21.5745V21.6117V21.6489V21.6861V21.7233V21.7605V21.7977V21.8348V21.872V21.9092V21.9464V21.9836V22.0208V22.058V22.0952V22.1324V22.1696V22.2068V22.244V22.2812V22.3184V22.3556V22.3928V22.43V22.4672V22.5044V22.5416V22.5788V22.616V22.6532V22.6904V22.7276V22.7648V22.802V22.8392V22.8763V22.9135V22.9507V22.9879V23.0251V23.0623V23.0995V23.1367C31.0686 23.4353 31.0164 23.6516 30.9298 23.8053C30.8464 23.9535 30.7219 24.0598 30.5405 24.1273L30.5386 24.128C30.4216 24.1726 30.2964 24.1887 30.1726 24.1752C30.0488 24.1617 29.9295 24.1188 29.8239 24.0496C29.7183 23.9804 29.6292 23.8866 29.5642 23.7753C29.4993 23.6642 29.4602 23.5388 29.4504 23.409C29.4431 23.2992 29.4413 23.1892 29.4449 23.0792L29.4451 23.0793V23.0709V23.0525V23.034V23.0155V22.997V22.9785V22.9601V22.9416V22.9231V22.9046V22.8861V22.8677V22.8492V22.8307V22.8122V22.7937V22.7753V22.7568V22.7383V22.7198V22.7013V22.6829V22.6644V22.6459V22.6274V22.6089V22.5905V22.572V22.5535V22.535V22.5165V22.4981V22.4796V22.4611V22.4426V22.4241V22.4057V22.3872V22.3687V22.3502V22.3317V22.3133V22.2948V22.2763V22.2578V22.2393V22.2209V22.2024V22.1839V22.1654V22.147V22.1285V22.11V22.0915V22.073V22.0546V22.0361V22.0176V21.9991V21.9806V21.9622V21.9437V21.9252V21.9067V21.8882V21.8698V21.8513V21.8328V21.8143V21.7959V21.7774V21.7589V21.7404V21.7219V21.7035V21.685V21.6665V21.648V21.6295V21.6111V21.5926V21.5741V21.5556V21.5371V21.5187V21.5002V21.4817V21.4632V21.4448V21.4263V21.4078V21.3893V21.3708V21.3524V21.3339V21.3154V21.2969V21.2784V21.26V21.2415V21.223V21.2045V21.1861V21.1676V21.1491V21.1306V21.1121V21.0937V21.0752V21.0567V21.0382V21.0197V21.0013V20.9828V20.9643V20.9458V20.9274V20.9089V20.8904V20.8719V20.8534V20.835V20.8165V20.798V20.7795V20.7611V20.7426V20.7241V20.7056V20.6871V20.6687V20.6502V20.6317V20.6132V20.5947V20.5763V20.5578V20.5393V20.5208V20.5024V20.4839V20.4654V20.4469V20.4284V20.41V20.3915V20.373V20.3545V20.3361V20.3176V20.2991V20.2806V20.2621V20.2437V20.2252V20.2067V20.1882V20.1698V20.1513V20.1328V20.1143V20.0958V20.0774V20.0589V20.0404V20.0219V20.0035V19.985V19.9665V19.948V19.9295V19.9111V19.8926V19.8741V19.8556V19.8372V19.8187V19.8002V19.7817V19.7632V19.7448V19.7263V19.7078V19.6893V19.6709V19.6524V19.6339V19.6154V19.597V19.5785V19.56V19.5415V19.523V19.5046V19.4861V19.4676V19.4491V19.4307V19.4122V19.3937V19.3752V19.3567V19.3383V19.3198V19.3013V19.2828V19.2644V19.2459V19.2274V19.2089V19.1905V19.172V19.1535V19.135V19.1165V19.0981V19.0796V19.0611V19.0426V19.0242V19.0057V18.9872V18.9687V18.9502V18.9318V18.9133V18.8948V18.8763V18.8579V18.8394V18.8209V18.8024V18.784V18.7655V18.747V18.7285V18.7101V18.6916V18.6731V18.6546V18.6361V18.6177V18.5992V18.5807V18.5622V18.5438V18.5253V18.5068V18.4883V18.4699V18.4514V18.4329V18.4144V18.3959V18.3775V18.359V18.3405V18.322V18.3036V18.2851V18.2666V18.2481V18.2297V18.2112V18.1927V18.1742V18.1558V18.1373V18.1188V18.1003V18.0818V18.0634V18.0449V18.0264V18.0079V17.9895V17.971V17.9525V17.934V17.9156V17.8971V17.8786V17.8601V17.8417V17.8232V17.8047V17.7862V17.7678V17.7493V17.7308V17.7123V17.6938V17.6754V17.6569V17.6384V17.6199V17.6015V17.583V17.5645V17.546V17.5276V17.5091V17.4906V17.4721V17.4537V17.4352V17.4167V17.3982V17.3798V17.3613V17.3428V17.3243V17.3059V17.2874V17.2689V17.2504V17.232V17.2135V17.195V17.1765V17.1581V17.1396V17.1211V17.1026V17.0841V17.0657V17.0472V17.0287V17.0102V16.9918V16.9733V16.9548V16.9363V16.9179V16.8994V16.8809V16.8624V16.844V16.8255V16.807V16.7885V16.7701V16.7516V16.7331V16.7146V16.6962V16.6777V16.6592V16.6407V16.6223V16.6038V16.5853V16.5668V16.5484V16.5299V16.5114V16.4929V16.4745V16.456V16.4375V16.419V16.4006V16.3821V16.3636V16.3451V16.3267V16.3082V16.2897V16.2712V16.2528V16.2343V16.2158V16.1973V16.1789V16.1604V16.1419V16.1234V16.105V16.0865V16.068V16.0495V16.0311V16.0126V15.9941V15.9756V15.9572V15.9387V15.9202V15.9017V15.8833V15.8648V15.8463V15.8278V15.8094V15.7909V15.7724V15.7539V15.7355V15.717V15.6985V15.68V15.6616V15.6431V15.6246V15.6061V15.5877V15.5692V15.5507V15.5322V15.5138V15.4953V15.4768V15.4583V15.4399V15.4214V15.4029V15.3844V15.366V15.3475V15.329V15.3106V15.2921V15.2736V15.2551V15.2367V15.2182V15.1997V15.1812V15.1628V15.1443V15.1258V15.1073V15.0889V15.0704V15.0519V15.0334V15.015V14.9965V14.978V14.9595V14.9411V14.9226V14.9041V14.8856V14.8672V14.8487V14.8302V14.8118V14.7933V14.7748V14.7563V14.7379V14.7194V14.7009V14.6824V14.664V14.6455V14.627V14.6085V14.5901V14.5716V14.5531V14.5346V14.5162V14.4977V14.4792V14.4607V14.4423V14.4238V14.4053V14.3869V14.3684V14.3499V14.3314V14.313V14.2945V14.276V14.2575V14.2391V14.2206V14.2021V14.1836V14.1652V14.1467V14.1282V14.1097V14.0913V14.0728V14.0543V14.0359V14.0174V13.9989V13.9804V13.962V13.9435V13.925V13.9065V13.8881V13.8696V13.8511V13.8326V13.8142V13.7957V13.7772V13.7588V13.7403V13.7218V13.7033V13.6849V13.6664V13.6479V13.6294V13.611ZM25.1961 21.0853L25.1246 21.3249L25.196 21.0853C19.3791 19.3511 13.5602 17.6227 7.73931 15.9C7.63067 15.8673 7.6091 15.8417 7.60447 15.8354C7.59965 15.8289 7.58008 15.7987 7.57996 15.6802C7.59061 14.5744 7.58917 13.468 7.58772 12.3471C7.5873 12.0182 7.58687 11.6881 7.58675 11.3564L26.8266 5.65365L26.825 21.5671C26.7994 21.5596 26.7738 21.552 26.7482 21.5445C26.2251 21.3904 25.7104 21.2387 25.1961 21.0853ZM14.3481 23.2747L14.348 23.2747C12.9028 22.804 11.8357 21.3384 11.8338 19.8856L18.4232 21.8452C17.5518 23.1679 15.8576 23.7666 14.3481 23.2747ZM3.35661 16.5577L3.3566 16.5564C3.35323 15.904 3.35435 15.2515 3.35548 14.5978C3.35604 14.2704 3.35661 13.9427 3.35661 13.6144V13.6087V13.6031V13.5974V13.5917V13.586V13.5803V13.5746V13.5689V13.5632V13.5575V13.5518V13.5461V13.5405V13.5348V13.5291V13.5234V13.5177V13.512V13.5063V13.5006V13.4949V13.4892V13.4835V13.4778V13.4722V13.4665V13.4608V13.4551V13.4494V13.4437V13.438V13.4323V13.4266V13.4209V13.4152V13.4096V13.4039V13.3982V13.3925V13.3868V13.3811V13.3754V13.3697V13.364V13.3583V13.3526V13.347V13.3413V13.3356V13.3299V13.3242V13.3185V13.3128V13.3071V13.3014V13.2957V13.29V13.2844V13.2787V13.273V13.2673V13.2616V13.2559V13.2502V13.2445V13.2388V13.2331V13.2274V13.2218V13.2161V13.2104V13.2047V13.199V13.1933V13.1876V13.1819V13.1762V13.1705V13.1648V13.1592V13.1535V13.1478V13.1421V13.1364V13.1307V13.125V13.1193V13.1136V13.1079V13.1022V13.0965V13.0909V13.0852V13.0795V13.0738V13.0681V13.0624V13.0567V13.051V13.0453V13.0396V13.0339V13.0283V13.0226V13.0169V13.0112V13.0055V12.9998V12.9941V12.9884V12.9827V12.977V12.9713V12.9657V12.96V12.9543V12.9486V12.9429V12.9372V12.9315V12.9258V12.9201V12.9144V12.9087V12.9031V12.8974V12.8917V12.886V12.8803V12.8746V12.8689V12.8632V12.8575V12.8518V12.8461V12.8405V12.8348V12.8291V12.8234V12.8177V12.812V12.8063V12.8006V12.7949V12.7892V12.7835V12.7779V12.7722V12.7665V12.7608V12.7551V12.7494V12.7437V12.738V12.7323V12.7266V12.7209V12.7152V12.7096V12.7039V12.6982V12.6925V12.6868V12.6811V12.6754V12.6697V12.664V12.6583V12.6526V12.647V12.6413V12.6356V12.6299V12.6242V12.6185V12.6128V12.6071V12.6014V12.5957V12.59V12.5844V12.5787V12.573V12.5673V12.5616V12.5559V12.5502V12.5445V12.5388V12.5331V12.5274V12.5218V12.5161V12.5104V12.5047V12.499V12.4933V12.4876V12.4819V12.4762V12.4705V12.4648V12.4592V12.4535V12.4478V12.4421V12.4364V12.4307V12.425V12.4193V12.4136V12.4079V12.4022V12.3965V12.3909V12.3852V12.3795V12.3738V12.3681V12.3624V12.3567V12.351V12.3453V12.3396V12.3339V12.3283V12.3226V12.3169V12.3112V12.3055V12.2998V12.2941V12.2884V12.2827V12.277V12.2713V12.2657V12.26V12.2543V12.2486V12.2429V12.2372V12.2315V12.2258V12.2201V12.2144V12.2087V12.2031V12.1974V12.1917V12.186V12.1803V12.1746V12.1689V12.1632V12.1575V12.1518V12.1461V12.1405V12.1348V12.1291V12.1234V12.1177V12.112V12.1063V12.1006V12.0949V12.0892V12.0835V12.0779V12.0722V12.0665V12.0608V12.0551V12.0494V12.0437V12.038V12.0323V12.0266V12.0209V12.0152V12.0096V12.0039V11.9982V11.9925V11.9868V11.9811V11.9754V11.9697V11.964V11.9583V11.9526V11.947V11.9413V11.9356V11.9299V11.9242V11.9185V11.9128V11.9071V11.9014V11.8957V11.89V11.8844V11.8787V11.873V11.8673V11.8616V11.8559V11.8502V11.8445V11.8388V11.8331V11.8274V11.8218V11.8161V11.8104V11.8047V11.799V11.7933V11.7876V11.7819V11.7762V11.7705V11.7648V11.7592V11.7535V11.7478V11.7421V11.7364V11.7307V11.725V11.7193V11.7136V11.7079V11.7022V11.6965V11.6909V11.6852V11.6795V11.6738V11.6681V11.6624V11.6567V11.651V11.6453V11.6396V11.6339V11.6283V11.6226V11.6169V11.6112V11.6055V11.5998V11.5941V11.5884V11.5827V11.577V11.5713V11.5657V11.56V11.5543V11.5486V11.5429V11.5372V11.5315V11.5258V11.5201V11.5144V11.5087V11.5031V11.4974V11.4917V11.486V11.4803V11.4746V11.4689V11.4632V11.4575V11.4518V11.4461V11.4405V11.4348V11.4291V11.4234V11.4177V11.412V11.4063V11.4006V11.3949V11.3892V11.3835V11.3779V11.3722V11.3665V11.3608V11.3551V11.3494V11.3437V11.338V11.3323V11.3266V11.3209V11.3152V11.3096V11.3039V11.2982V11.2925V11.2868V11.2811V11.2754V11.2697V11.264V11.2583V11.2526V11.247V11.2413V11.2356V11.2299V11.2242V11.2185V11.2128V11.2071V11.2014V11.1957V11.19V11.1844V11.1787V11.173V11.1673V11.1616V11.1559V11.1502V11.1445V11.1388V11.1331V11.1274V11.1218V11.1161V11.1104V11.1047V11.099V11.0933V11.0876V11.0819V11.0762V11.0705V11.0648V11.0592V11.0535V11.0478V11.0421V11.0364V11.0307V11.025V11.0193V11.0136V11.0079V11.0022V10.9965V10.9909V10.9852V10.9795V10.9738V10.9681V10.9624V10.9567V10.951V10.9453V10.9396V10.9339V10.9283V10.9226V10.9169V10.9112V10.9055V10.8998V10.8941V10.8884V10.8827V10.877V10.8713V10.8657V10.86V10.8543V10.8486V10.8429V10.8372V10.8315V10.8258V10.8201V10.8144V10.8087V10.8031V10.7974V10.7917V10.786V10.7803V10.7746V10.7689V10.7632V10.7575V10.7518V10.7461V10.7405V10.7348V10.7291V10.7234V10.7177V10.712V10.7063V10.7013C3.35721 10.5893 3.36979 10.515 3.38541 10.4691C3.39462 10.4421 3.40285 10.4304 3.40636 10.4264C3.41115 10.4253 3.42295 10.4238 3.44566 10.4267C3.48953 10.4323 3.55738 10.4528 3.65367 10.5014C3.74973 10.55 3.84543 10.598 3.94071 10.6457C4.26619 10.8088 4.58678 10.9695 4.89988 11.1461C4.91823 11.1597 4.93419 11.1771 4.94658 11.1977C4.95862 11.2177 4.96694 11.2402 4.97094 11.2638C4.97767 12.164 4.97828 13.0621 4.97889 13.9612C4.97934 14.6198 4.97979 15.2789 4.98264 15.9398L4.98271 15.9543L4.98443 15.9686C4.98668 15.9873 4.98261 16.0057 4.97363 16.0208C4.96471 16.0358 4.95191 16.046 4.93835 16.0511L4.92818 16.0549L4.91839 16.0596C4.66119 16.183 4.39951 16.319 4.14217 16.4527C3.96302 16.5457 3.78599 16.6377 3.61404 16.7236L3.61392 16.7236C3.53483 16.7632 3.47813 16.7782 3.44195 16.7816C3.42463 16.7832 3.41408 16.782 3.4088 16.781C3.40773 16.7808 3.40684 16.7805 3.40611 16.7803C3.40507 16.7801 3.40437 16.7798 3.40395 16.7796L3.40296 16.7792L3.40198 16.7784C3.40134 16.7778 3.40009 16.7766 3.39833 16.7743C3.39479 16.7697 3.38876 16.7603 3.38228 16.7434C3.36877 16.7081 3.35661 16.6488 3.35661 16.5577ZM3.40817 10.4246C3.40818 10.4246 3.40795 10.4248 3.40745 10.4252L3.40817 10.4246ZM3.40498 10.4267C3.4042 10.4271 3.40375 10.4273 3.40374 10.4272L3.40498 10.4267Z" fill="#FE7E7E" stroke="#FE7E7E" stroke-width="0.5"/>
</svg>
