<svg width="31" height="31" viewBox="0 0 31 31" fill="none" xmlns="http://www.w3.org/2000/svg">
<path fill-rule="evenodd" clip-rule="evenodd" d="M15.5039 9.99403C12.4631 9.99403 9.99797 12.4591 9.99797 15.5C9.99797 18.5408 12.4631 21.0059 15.5039 21.0059C18.5448 21.0059 21.0099 18.5408 21.0099 15.5C21.0099 12.4591 18.5448 9.99403 15.5039 9.99403ZM13.0813 15.5C13.0813 14.162 14.1659 13.0774 15.5039 13.0774C16.8419 13.0774 17.9265 14.162 17.9265 15.5C17.9265 16.838 16.8419 17.9226 15.5039 17.9226C14.1659 17.9226 13.0813 16.838 13.0813 15.5Z" fill="#6080FE"/>
<path fill-rule="evenodd" clip-rule="evenodd" d="M12.4408 0.083252C11.7569 0.083252 11.1548 0.533759 10.9618 1.18982L9.8604 4.93373L9.16626 5.33409L5.35391 4.43051C4.69137 4.27348 4.00428 4.56968 3.66358 5.1592L0.610227 10.4425C0.267696 11.0352 0.357012 11.7827 0.829531 12.278L3.52436 15.1028V15.897L0.829531 18.7218C0.357012 19.2171 0.267696 19.9647 0.610227 20.5574L3.66358 25.8406C4.00428 26.4302 4.69137 26.7264 5.35391 26.5693L9.16626 25.6658L9.8604 26.0661L10.9618 29.81C11.1548 30.4661 11.7569 30.9166 12.4408 30.9166H18.5475C19.2286 30.9166 19.829 30.4696 20.0244 29.8171L21.1469 26.0683L21.841 25.6679L25.6385 26.5873C26.303 26.7481 26.994 26.4522 27.3361 25.8603L30.3894 20.577C30.7306 19.9867 30.6435 19.2424 30.1752 18.7468L27.4867 15.9013V15.0985L30.1752 12.253C30.6435 11.7574 30.7306 11.0131 30.3894 10.4228L27.3361 5.13955C26.994 4.54765 26.303 4.25172 25.6385 4.41258L21.841 5.33194L21.1469 4.93158L20.0244 1.1827C19.829 0.530212 19.2286 0.083252 18.5475 0.083252H12.4408ZM12.6442 6.39596L13.5943 3.16659H17.3998L18.3689 6.40307C18.4818 6.7801 18.7346 7.09968 19.0755 7.29631L20.8344 8.31081C21.1772 8.50851 21.5829 8.56684 21.9675 8.47374L25.2434 7.68064L27.1449 10.9707L24.8244 13.4266C24.554 13.7128 24.4033 14.0917 24.4033 14.4854V16.5144C24.4033 16.9082 24.554 17.287 24.8244 17.5732L27.1449 20.0291L25.2434 23.3192L21.9675 22.5261C21.5829 22.433 21.1772 22.4913 20.8344 22.689L19.0755 23.7035C18.7346 23.9002 18.4818 24.2197 18.3689 24.5968L17.3998 27.8333H13.5943L12.6442 24.6039C12.5324 24.2239 12.2786 23.9014 11.9355 23.7035L10.1766 22.689C9.83601 22.4926 9.43329 22.4337 9.05075 22.5244L5.75911 23.3045L3.85769 20.0145L6.18151 17.5786C6.45507 17.2918 6.60769 16.9107 6.60769 16.5144V14.4854C6.60769 14.0891 6.45507 13.708 6.18151 13.4213L3.85769 10.9854L5.75911 7.6953L9.05075 8.47547C9.43329 8.56613 9.83601 8.50723 10.1766 8.31081L11.9355 7.29631C12.2786 7.09839 12.5324 6.77598 12.6442 6.39596Z" fill="#6080FE"/>
</svg>
