<svg width="40" height="39" viewBox="0 0 40 39" fill="none" xmlns="http://www.w3.org/2000/svg">
<path fill-rule="evenodd" clip-rule="evenodd" d="M18.4781 3.24715C19.3808 2.46481 20.7213 2.46482 21.624 3.24715L32.4885 12.6631C33.5077 13.5464 33.5999 15.0956 32.6927 16.0935L29.7622 19.317C28.8909 20.2755 27.4166 20.3703 26.4297 19.5314L20.0511 14.1096L13.6725 19.5314C12.6855 20.3703 11.2112 20.2755 10.3399 19.317L7.40945 16.0935C6.50221 15.0956 6.59441 13.5464 7.61362 12.6631L18.4781 3.24715ZM20.0511 6.12144L10.3303 14.5461L12.1885 16.59L18.9104 10.8764C19.5681 10.3174 20.534 10.3174 21.1917 10.8764L27.9136 16.5901L29.7718 14.5461L20.0511 6.12144ZM11.8274 26.0545L9.97133 27.4981C11.5449 29.2843 14.9884 32.3424 20.0511 32.3424C25.1137 32.3424 28.5573 29.2843 30.1308 27.4981L28.2748 26.0545C27.7592 26.5878 27.0675 27.2251 26.2213 27.827C24.7034 28.9069 22.5911 29.9407 20.0511 29.9407C17.5111 29.9407 15.3988 28.9069 13.8808 27.827C13.0347 27.2251 12.3429 26.5878 11.8274 26.0545ZM10.8651 22.7462C11.6902 22.1044 12.8405 22.2886 13.452 23.0605C13.742 23.4267 14.5503 24.3735 15.737 25.2177C16.9259 26.0635 18.3972 26.7385 20.0511 26.7385C21.7049 26.7385 23.1762 26.0635 24.3651 25.2177C25.5518 24.3735 26.3601 23.4267 26.6502 23.0605C27.2616 22.2886 28.4119 22.1044 29.2371 22.7462L32.785 25.5057C33.7499 26.2562 34.0571 27.7069 33.2165 28.7905C31.857 30.543 27.3597 35.5446 20.0511 35.5446C12.7425 35.5446 8.24515 30.543 6.88561 28.7905C6.04501 27.7069 6.35226 26.2562 7.31716 25.5057L10.8651 22.7462Z" fill="#40A6E6"/>
</svg>
