<svg width="111" height="37" viewBox="0 0 111 37" fill="none" xmlns="http://www.w3.org/2000/svg">
<g id="pigment-2021-08-10 2" clip-path="url(#clip0_94_797)">
<g id="Clip path group">
<mask id="mask0_94_797" style="mask-type:luminance" maskUnits="userSpaceOnUse" x="0" y="0" width="111" height="37">
<g id="a">
<path id="Vector" d="M0 0.5H111V36.5H0V0.5Z" fill="white"/>
</g>
</mask>
<g mask="url(#mask0_94_797)">
<g id="Group">
<path id="Vector_2" d="M42.4115 31.0603V17.3825H47.2882C48.3186 17.3825 49.169 17.5652 49.8481 17.93C50.5251 18.2822 51.0282 18.7697 51.3536 19.3952C51.692 20.0075 51.8615 20.7047 51.8615 21.4862C51.8615 22.2275 51.6986 22.9134 51.3733 23.5389C51.0585 24.1513 50.5642 24.6388 49.8872 25.004C49.2103 25.3693 48.3449 25.5515 47.2882 25.5515H44.4095V31.0603H42.4115ZM44.4073 23.8505H47.1951C48.1364 23.8505 48.8068 23.6435 49.2103 23.225C49.6247 22.7953 49.8328 22.2163 49.8328 21.4862C49.8328 20.7287 49.6247 20.1455 49.2103 19.727C48.809 19.2973 48.1386 19.0813 47.1951 19.0813H44.4073V23.8505ZM61.2972 28.0892C60.809 28.0892 60.3555 28.0314 59.9411 27.9155L59.132 28.7349C59.2707 28.826 59.4401 28.904 59.6395 28.9712C59.8392 29.0375 60.1233 29.0957 60.4855 29.1444C60.8481 29.198 61.3447 29.2494 61.9716 29.3004C63.2149 29.4163 64.1109 29.7302 64.6641 30.2402C65.2173 30.7367 65.4904 31.4 65.4904 32.2352C65.4904 32.8074 65.3407 33.3485 65.0391 33.8582C64.7506 34.3794 64.2931 34.7979 63.6662 35.1073C63.052 35.4347 62.2604 35.5948 61.295 35.5948C59.9911 35.5948 58.9282 35.3345 58.1147 34.8133C57.3118 34.3059 56.9105 33.5308 56.9105 32.489C56.9105 32.0837 57.0124 31.6805 57.2121 31.2778C57.4246 30.8878 57.7587 30.5162 58.21 30.164C57.9683 30.0604 57.7353 29.9362 57.5137 29.7928C57.3249 29.6477 57.1555 29.5078 57.0058 29.3627V28.8954L58.6266 27.1764C57.8975 26.5262 57.5353 25.6734 57.5353 24.6178C57.5353 23.981 57.6784 23.4002 57.9672 22.8789C58.2684 22.3445 58.7004 21.9215 59.2663 21.6077C59.8327 21.2938 60.5096 21.14 61.299 21.14C61.8263 21.14 62.3166 21.218 62.7658 21.3763H65.6642V22.7432L64.5925 22.841C64.8937 23.3754 65.0434 23.9679 65.0434 24.62C65.0434 25.2703 64.8937 25.8583 64.5925 26.3792C64.3037 26.9004 63.8765 27.3189 63.3124 27.6283C62.757 27.9313 62.0866 28.0892 61.2972 28.0892ZM61.2972 26.4662C61.8741 26.4662 62.3382 26.3102 62.6898 25.9985C63.052 25.6712 63.2364 25.217 63.2364 24.629C63.2364 24.0302 63.0542 23.5738 62.6898 23.2622C62.3382 22.9479 61.8741 22.7945 61.2972 22.7945C60.7068 22.7945 60.2296 22.9502 59.8673 23.2622C59.5161 23.576 59.3379 24.0302 59.3379 24.629C59.3379 25.217 59.5139 25.6712 59.8673 25.9985C60.2296 26.3124 60.7068 26.4662 61.2972 26.4662ZM58.7913 32.2907C58.7913 32.8494 59.0301 33.2683 59.5073 33.5398C59.9846 33.8248 60.5812 33.9695 61.295 33.9695C61.9869 33.9695 62.5445 33.8135 62.9695 33.5019C63.3971 33.2038 63.6096 32.7984 63.6096 32.2929C63.6096 31.9168 63.4664 31.5894 63.178 31.3157C62.8895 31.055 62.3426 30.8923 61.54 30.8282C60.9368 30.7899 60.4034 30.7322 59.9389 30.6542C59.4986 30.9017 59.1992 31.1687 59.0345 31.4537C58.8738 31.7364 58.7913 32.0169 58.7913 32.2907ZM66.8757 31.0599V21.3677H68.6436L68.8109 22.7368C69.1029 22.2498 69.5105 21.8469 69.9954 21.5657C70.4963 21.2807 71.0732 21.1359 71.7265 21.1359C73.2082 21.1359 74.2364 21.7415 74.8133 22.9528C75.1473 22.3981 75.6142 21.9405 76.1694 21.6238C76.7463 21.2964 77.3666 21.1363 78.0305 21.1363C79.1978 21.1363 80.1154 21.5012 80.7792 22.2294C81.443 22.9573 81.7771 24.0463 81.7771 25.4912V31.0599H79.7813V25.7027C79.7813 23.8277 79.0893 22.8883 77.7117 22.8883C77.0088 22.8883 76.4319 23.162 75.9806 23.7077C75.5403 24.2552 75.3212 25.037 75.3212 26.0544V31.0577H73.3254V25.7027C73.3254 23.8277 72.6287 22.8883 71.2361 22.8883C70.5442 22.8883 69.9735 23.162 69.5222 23.7077C69.0818 24.2552 68.8627 25.037 68.8627 26.0544V31.0577H66.8757V31.0599ZM93.4489 31.0599V21.3677H95.2168L95.3665 23.0687C95.6554 22.4698 96.076 21.9999 96.6292 21.6617C97.1955 21.3099 97.8399 21.1359 98.5687 21.1359C99.6966 21.1359 100.584 21.5012 101.224 22.2294C101.875 22.9573 102.203 24.0463 102.203 25.4912V31.0599H100.224V25.7027C100.224 23.8277 99.4819 22.8883 98.0046 22.8883C97.2627 22.8883 96.6489 23.162 96.1607 23.7077C95.6835 24.2552 95.4447 25.037 95.4447 26.0544V31.0577H93.4489V31.0599ZM107.639 31.0595C106.724 31.0595 105.995 30.8327 105.457 30.3763C104.919 29.9087 104.648 29.0803 104.648 27.8938V23.1062H103.413V21.3669H104.648L104.893 18.9047H106.644V21.3669H108.153V23.1062H106.644V27.893C106.644 28.4274 106.75 28.7994 106.965 29.0064C107.192 29.2022 107.572 29.3004 108.113 29.3004H109.184V31.0592L107.639 31.0595ZM91.6977 23.4227C91.3201 22.7192 90.7929 22.16 90.1159 21.7415C89.4394 21.3118 88.643 21.0958 87.7254 21.0958C86.7838 21.0958 85.9575 21.3118 85.2414 21.7415C84.5407 22.1713 83.9876 22.7728 83.5841 23.5385C83.1956 24.3065 83.0006 25.1994 83.0006 26.2145C83.0006 27.2165 83.2 28.0985 83.6035 28.8508C84.0069 29.6083 84.5561 30.2004 85.2612 30.6302C85.9768 31.0442 86.7925 31.2557 87.7083 31.2557C88.8124 31.2557 89.7366 30.9482 90.4741 30.3362C91.227 29.7238 91.728 28.9622 91.9796 28.0517H89.9838C89.8049 28.4953 89.5032 28.8754 89.1162 29.1448C88.7387 29.4054 88.2698 29.5348 87.7039 29.5348C87.0032 29.5348 86.3803 29.294 85.8424 28.811C85.3152 28.3142 85.0202 27.5998 84.9574 26.6623H92.2228C92.2355 26.4797 92.2421 26.315 92.2421 26.1748C92.2552 26.0188 92.2618 25.8763 92.2618 25.745C92.2636 24.9013 92.0752 24.1262 91.6977 23.4227ZM85.9399 23.4227C86.454 23.0042 87.0441 22.7968 87.7101 22.7968C88.4261 22.7968 89.0227 23.0195 89.4978 23.4628C89.9144 23.8502 90.1638 24.3579 90.2441 24.9834H85.0461C85.1874 24.302 85.4846 23.7812 85.9399 23.4227ZM53.3724 31.0603V21.368H55.3682V31.058H53.3724V31.0603ZM54.3644 20.0938C55.0936 20.0938 55.6837 19.4818 55.6837 18.7269C55.6837 17.972 55.0936 17.3574 54.3644 17.3574C53.6356 17.3574 53.0456 17.9698 53.0456 18.7269C53.0478 19.4818 53.6378 20.0938 54.3644 20.0938Z" fill="#050B20"/>
<path id="Vector_3" d="M10.2365 24.4814C9.96882 24.394 10.0561 24.0726 10.3296 23.65C10.0156 23.9654 9.83008 24.0287 9.71104 23.878C9.6581 23.7839 9.54856 23.7464 9.56426 23.5952C9.43318 23.4317 9.26485 23.2937 9.21483 23.0609C9.13304 22.8974 9.06951 22.7275 8.99392 22.5576C8.92455 22.3814 8.8486 22.2119 8.75403 22.0607C8.70657 21.9857 8.6591 21.91 8.72409 21.7589C8.67005 21.715 8.5784 21.6962 8.54956 21.6269C8.44247 21.3727 8.35018 21.1123 8.27315 20.8469L8.22715 20.7212C8.27827 20.6455 8.25453 20.6076 8.16873 20.608L8.14536 20.545C8.17712 20.5007 8.16508 20.4884 8.10994 20.4947C8.00588 20.476 7.98287 20.4134 8.02852 20.3061C7.92628 20.212 7.88027 20.086 7.8653 19.9412C7.68894 19.8726 7.66813 19.7215 7.61628 19.5767L7.34499 18.8534C7.25755 18.5923 7.19805 18.3222 7.16754 18.0479C7.13686 17.7835 7.07625 17.5004 7.04558 17.2232C6.99775 16.915 7.03061 16.5621 7.09341 16.2284C7.15037 15.9006 7.28109 15.5477 7.44248 15.2136C7.41948 15.1382 7.45197 15.0689 7.5575 15.0119L7.54946 14.8356C7.46767 13.6019 7.63782 12.3606 8.04568 11.1884L8.41373 10.1297C8.75787 9.12994 9.26944 8.19958 9.92537 7.38062L11.0755 5.94174C11.0639 5.90424 11.0642 5.89149 11.1004 5.91662L11.1887 5.80299C11.724 5.13143 12.3467 4.53863 13.0392 4.04124L13.8812 3.44124C14.2989 3.14387 14.7404 2.89749 15.1931 2.67587C15.172 2.53712 15.1738 2.44899 15.2099 2.47412C15.1738 2.19099 15.2691 2.31662 15.3355 2.36049C15.3319 2.25362 15.356 2.26599 15.4034 2.34174C15.4535 2.29112 15.521 2.28437 15.5933 2.33462C15.62 2.24649 15.72 2.42874 15.6955 2.17074C15.6901 2.13924 15.708 2.15799 15.72 2.17074C15.7799 2.23337 15.846 2.28999 15.9121 2.34624L16.5072 2.08037C16.5025 2.02374 16.5029 1.99862 16.5207 2.01737C16.5784 1.92287 16.6182 1.79687 16.7033 1.83437C16.6975 1.80287 16.6978 1.79012 16.7099 1.80287C16.7106 1.76537 16.7062 1.68287 16.7186 1.68287C16.7866 1.67649 16.8596 1.68924 16.9268 1.69524L17.0133 1.68249C16.9987 1.52499 17.0228 1.53737 17.0414 1.53099C17.0597 1.52499 17.0841 1.53737 17.1145 1.54374L17.1331 1.53737L17.1513 1.54337C17.2371 1.28499 17.3737 1.22162 17.5143 1.24037L17.5873 1.25274L17.6852 1.26512C17.6998 1.17699 17.7352 1.22724 17.7647 1.27112L18.1321 1.30787L18.1503 1.31424L18.2 1.27637L18.2014 1.22574C18.2854 1.30112 18.3599 1.26324 18.4439 1.33862C19.2421 1.12125 20.0662 1.0215 20.8917 1.04237C20.899 0.986115 20.9063 0.95424 20.918 0.96699L20.9611 0.960615C21.0239 0.89724 21.0889 0.99174 21.1539 0.85299C21.216 0.82749 21.2872 0.65724 21.3456 0.78324H21.3701C21.4022 0.713865 21.4259 0.751365 21.4497 0.78924C21.4759 0.71349 21.5128 0.71349 21.5351 0.801615L21.8272 0.88899C21.9342 0.78174 22.0171 0.907365 22.1211 0.913365C22.2683 0.92574 22.4001 1.05137 22.5334 1.12637C22.5538 1.04462 22.5724 1.02549 22.5845 1.02549C22.7254 1.04424 22.8583 1.11924 23.0058 1.10612C23.1106 1.09974 23.2162 1.04274 23.3064 1.11174L23.3662 1.17474L23.4093 1.16837L23.4155 1.16199C23.4429 1.04837 23.4484 1.06749 23.4466 1.15562C23.4597 1.11774 23.4659 1.11137 23.4707 1.16799C23.5232 1.01687 23.54 1.08587 23.5557 1.20549C23.6277 1.01049 23.6686 1.10424 23.7106 1.13574L23.7777 1.14212C23.8362 0.99699 23.8727 1.03487 23.9154 1.04087C24.0129 1.06599 24.1045 1.07199 24.2101 1.01462C24.2659 0.98349 24.3152 0.983115 24.3499 1.07124C24.3492 1.09637 24.3426 1.11549 24.3422 1.14062C24.3567 1.11489 24.3676 1.08726 24.3747 1.05849C24.4269 0.91974 24.4503 0.970365 24.4806 0.976365C24.6453 1.02024 24.8089 1.11399 24.9801 1.12637C25.1517 1.13837 25.316 1.19462 25.5004 1.16912C25.6355 1.15599 25.7564 1.24412 25.8714 1.31274C25.9861 1.38174 26.0616 1.56399 26.2033 1.54524C26.2584 1.53849 26.2676 1.67687 26.2964 1.74624C26.2957 1.78374 26.2822 1.83437 26.2687 1.88499C26.2552 1.93524 26.2358 1.97949 26.2227 2.02974L26.2285 2.03612C26.2285 2.02337 26.2292 2.01099 26.2358 1.99187C26.3913 1.62624 26.3457 2.00424 26.4541 1.83399C26.479 1.80887 26.5104 1.78974 26.5023 1.85912C26.5107 2.02262 26.6046 1.95287 26.6458 2.02224C26.6634 2.05374 26.7138 2.00349 26.6542 2.18612C26.6929 2.09762 26.7243 2.06612 26.7623 2.01587L27.4093 2.41074L27.5667 2.49849C27.6521 2.52362 27.7631 2.49812 27.8088 2.63649L27.8333 2.64887C27.9092 2.54762 27.9329 2.58549 27.9501 2.62974C28.0027 2.74937 28.0877 2.77412 28.1856 2.78649C28.2959 2.79887 28.3733 2.89299 28.4832 2.90537C28.5872 2.92412 28.6716 2.98674 28.7494 3.06849C28.7428 3.08724 28.7359 3.11874 28.7165 3.15024C28.7114 3.16871 28.7027 3.18593 28.6909 3.20087C28.7099 3.18212 28.7348 3.15662 28.7607 3.10599C28.8483 3.01787 28.852 3.12474 28.9013 3.12474C29.0499 3.06099 29.0009 3.31974 28.8563 3.73562L28.8622 3.74199C29.0356 3.40749 29.1433 3.27512 29.1908 3.33812C29.22 3.38199 29.2887 3.35049 29.2795 3.47012C29.3643 3.51999 29.4621 3.53237 29.4957 3.67074C29.5906 3.80949 29.66 3.99774 29.7863 4.09187C29.8229 4.11699 29.8524 4.14849 29.8126 4.27449C29.8557 4.26812 29.9057 4.23024 29.9295 4.25537C30.0072 4.34949 30.066 4.45037 30.131 4.55724L30.1672 4.59474C30.1409 4.67049 30.1591 4.67649 30.2154 4.61987L30.2336 4.63862C30.2081 4.68924 30.2201 4.68924 30.2577 4.65137C30.3264 4.59437 30.3381 4.61949 30.318 4.70124C30.3859 4.68249 30.4217 4.71999 30.4447 4.78299C30.5633 4.70049 30.5922 4.76987 30.6345 4.80137C30.7915 4.90149 30.9862 4.96412 31.0924 5.13999C31.1457 5.22174 31.2312 5.25924 31.2969 5.32862C31.4108 5.43512 31.4619 5.60499 31.4689 5.83187C31.8243 6.18992 32.1515 6.57638 32.4474 6.98762L32.9046 7.63524C33.4937 8.47232 33.9308 9.41177 34.1949 10.4084L34.7664 12.466C34.9858 13.303 35.0943 14.1779 35.0738 15.0467L35.0483 16.1425C35.0374 16.8796 34.9337 17.6122 34.7397 18.322L34.4845 19.267C34.3972 19.5884 34.5732 20.0189 34.4494 20.3279C34.5564 20.4786 34.3059 20.6024 34.2683 20.911C34.2928 20.911 34.2917 20.9485 34.2344 21.0434C34.2716 21.0306 34.2643 21.0749 34.2508 21.1251C34.3176 21.1566 34.2209 21.352 33.974 21.6865C33.8919 21.7937 33.8404 21.8946 33.7331 22.0142C33.6498 22.1717 33.5293 22.3551 33.3957 22.5505C33.3891 22.5692 33.3573 22.6135 33.3069 22.6765L33.2945 22.6892C33.1788 22.9037 32.9389 23.2067 32.7114 23.4966L32.7048 23.503C32.6917 23.5409 32.6351 23.6102 32.5723 23.6732C32.4719 23.7745 32.3959 23.8757 32.3138 23.9699C32.282 24.0269 32.1809 24.1405 32.1181 24.2162C32.1004 24.2481 32.079 24.2777 32.0545 24.3044C31.8464 24.5507 31.8391 24.5946 31.8632 24.6197C31.8815 24.6134 31.9253 24.5942 31.8683 24.664C31.8114 24.7334 31.7486 24.7964 31.7175 24.8155L31.6806 24.8282L31.5806 24.904C31.5667 24.967 31.5667 24.967 31.4543 25.0679L31.2352 25.2385C30.9898 25.51 30.7832 25.693 30.6141 25.8509L30.0244 26.4066C29.9868 26.4568 29.9425 26.5013 29.893 26.539C29.8336 26.5884 29.7769 26.6411 29.7232 26.6969L29.7108 26.7096C29.6636 26.7838 29.5989 26.8446 29.5227 26.8862C29.4537 26.9432 29.3913 27.0062 29.3223 27.0632C29.1594 27.2147 28.9966 27.3539 28.8337 27.5054C28.5946 27.7577 28.3496 28.0165 28.1991 28.1556C28.1363 28.2186 28.0925 28.2501 28.0166 28.3386C27.784 28.5974 27.6226 28.5861 27.6868 28.4601C27.616 28.5287 27.5495 28.5876 27.5327 28.579C27.5327 28.579 27.4013 28.699 27.4334 28.6296C26.95 28.6821 25.9667 28.7886 25.9028 28.7909C25.8761 28.8794 25.8385 28.9172 25.7892 28.93C25.5603 29.0125 25.3255 29.0762 25.0973 29.146C24.8691 29.203 24.6405 29.2731 24.412 29.3429C24.0969 29.4381 23.7869 29.5776 23.4681 29.5784C23.3943 29.5784 23.3272 29.5724 23.2658 29.5724C23.2165 29.5851 23.1734 29.5919 23.1242 29.6042L23.1176 29.6106C23.0847 29.7179 23.0544 29.6991 23.0252 29.6297C22.9996 29.6676 22.969 29.674 22.9518 29.6297C22.8499 29.7812 22.759 29.7377 22.6816 29.6432H22.6692C22.5053 29.8326 22.3596 29.77 22.2066 29.7644L21.9977 29.7775C21.8655 29.9226 21.737 29.9039 21.6143 29.9042C21.3259 29.9114 21.044 29.9117 20.7482 29.9755C20.5942 30.0077 20.447 30.0081 20.3137 29.9327C20.3081 29.9122 20.3086 29.8904 20.3152 29.8701L20.2524 29.9331C20.1392 30.0595 20.0541 30.0216 19.9683 30.0092C19.479 29.9477 19.0036 29.8356 18.5147 29.7614C18.032 29.6935 17.6056 29.5686 17.1411 29.494C16.7869 29.4321 16.4839 29.269 16.1932 29.119C15.9084 28.9746 15.6937 28.711 15.3768 28.636C15.2607 28.6049 15.2154 28.4541 15.1442 28.3532C15.1476 28.3087 15.1611 28.2655 15.1836 28.2272C15.1902 28.2085 15.1968 28.2021 15.2092 28.1897L15.1851 28.177C14.954 28.36 14.9857 28.0454 14.7871 28.1466C14.7316 28.1654 14.6823 28.1654 14.6841 28.0904C14.6516 27.9014 14.4614 27.9081 14.3661 27.7952C14.3424 27.7574 14.2566 27.7577 14.3332 27.6314L14.3212 27.619C14.2591 27.6565 14.2033 27.676 14.1412 27.7015C13.6952 27.3846 13.2632 27.0474 12.8464 26.6909L12.558 26.4524C12.3944 26.3455 12.206 26.2769 12.1187 26.0819L12.0702 26.0567C11.9402 26.1137 11.9048 26.0511 11.8693 25.9881C11.7817 25.8059 11.6309 25.6994 11.4677 25.6052C11.2859 25.5047 11.1493 25.3101 10.9561 25.1845C10.7688 25.0652 10.6257 24.8894 10.495 24.7135C10.5016 24.682 10.5205 24.6632 10.5457 24.6377C10.5709 24.6126 10.5895 24.6062 10.5895 24.6062C10.5589 24.5999 10.5154 24.619 10.4716 24.6505C10.3183 24.67 10.315 24.538 10.2365 24.4814Z" fill="#4AE6B6"/>
<path id="Vector_4" d="M19.6039 20.0631L19.1636 19.2329C18.7923 18.5332 18.3013 17.9079 17.714 17.3871L17.1225 16.8584C16.2806 16.1137 15.2683 15.6009 14.1806 15.3681L12.9395 15.1007C12.5175 15.0114 12.0881 14.9646 11.6572 14.9609C11.039 14.953 10.1894 14.9402 10.1288 14.9159C10.0842 14.9009 9.69425 14.9121 9.25098 14.9249C8.43199 14.9519 7.62615 15.1326 6.87106 15.4566L6.35403 15.6809C5.80692 15.9155 5.29317 16.2249 4.82668 16.6007L4.14279 17.1452C3.91265 17.3311 3.69343 17.5309 3.48629 17.7434L2.98606 18.2646C2.60812 18.6555 2.28116 19.095 2.01334 19.5722L1.60878 20.2791C1.60403 20.287 1.59929 20.2952 1.59636 20.3099C1.48399 20.406 1.38036 20.5125 1.28673 20.6279C1.12754 20.8221 0.987325 21.0385 0.909552 21.2586C0.837621 21.4495 0.770802 21.6599 0.69668 21.844C0.618692 22.0338 0.563753 22.2328 0.533101 22.4365L0.453138 23.0132C0.435611 23.1272 0.395812 23.2345 0.485999 23.3462C0.444374 23.4467 0.429769 23.5465 0.462996 23.647C0.395447 23.6995 0.394351 23.7479 0.449121 23.8011C0.48746 23.818 0.490746 23.8311 0.454233 23.8476L0.44693 23.8979C0.462996 23.9069 0.466282 23.9196 0.476141 23.9309L0.467013 23.9744C0.462266 23.9826 0.457884 23.9905 0.445105 23.9939L0.430499 24.094C0.3865 24.2969 0.354191 24.5022 0.333739 24.709C0.334105 24.7364 0.341042 24.7619 0.353822 24.7859L0.350901 24.9302C0.32092 24.9727 0.307858 25.0252 0.314388 25.0772C0.322786 25.2119 0.311832 25.3517 0.29467 25.4935C0.283716 25.6334 0.271302 25.7665 0.260348 25.9067C0.210325 26.0777 0.270572 26.2322 0.297957 26.389C0.234424 26.4816 0.292114 26.548 0.29321 26.6297C0.294305 26.7115 0.358203 26.749 0.47395 26.7512C0.479062 26.7977 0.482713 26.8375 0.494397 26.8825C0.361124 26.9942 0.310371 27.1112 0.405305 27.2151C0.436341 27.2819 0.39143 27.3692 0.498049 27.4154C0.537848 27.4112 0.572536 27.4154 0.590427 27.4311C0.590427 27.4311 0.575822 27.4281 0.550628 27.4349C0.525434 27.442 0.506812 27.4472 0.490746 27.4649C0.513749 27.6299 0.54442 27.7997 0.623654 27.9486C0.705078 28.1042 0.724795 28.2839 0.807315 28.4185C0.880341 28.5422 0.934016 28.6709 0.93292 28.822C0.933651 28.8764 0.934381 28.9307 1.03881 28.9431L1.05524 28.9799C1.04319 29.1407 1.14141 29.2574 1.20933 29.389L1.31266 29.6552C1.45729 30.0469 1.61871 30.4317 1.79646 30.8087C1.85196 30.814 1.8965 30.829 1.96296 30.8245C1.84356 30.8845 1.90563 30.9156 1.91549 30.9539C1.9374 31.0641 2.06373 31.132 2.01773 31.2681C1.98998 31.3169 2.02174 31.3356 2.06483 31.3439C2.23607 31.3514 2.07104 31.5749 2.35839 31.5096C2.36935 31.4999 2.37592 31.498 2.3803 31.4897L2.38395 31.5025C2.35401 31.5175 2.31604 31.528 2.28172 31.5512C2.25328 31.5677 2.22901 31.5908 2.21088 31.6187C2.22183 31.7114 2.19774 31.8276 2.262 31.8921C2.44164 32.0616 2.48765 32.3159 2.61545 32.5202C2.7531 32.7359 2.89185 32.9575 3.09852 33.1266C3.37419 33.3516 3.60057 33.5976 3.89049 33.8256C4.17529 34.0619 4.44512 34.3165 4.74124 34.543C4.79236 34.5835 4.83435 34.6405 4.95265 34.6011L5.01582 34.5839C5.02203 34.582 5.01947 34.5966 5.00998 34.6127C5.06329 34.7144 5.15932 34.7702 5.27068 34.8077C5.48538 34.879 5.66283 34.9877 5.8527 35.0927C5.93267 35.1392 6.00314 35.2015 6.14043 35.1572L6.28064 35.2281C6.37813 35.2904 6.45079 35.3867 6.62423 35.3252L6.63226 35.3297C6.64942 35.4209 6.69287 35.4842 6.81263 35.4239C6.80825 35.4595 6.83089 35.467 6.86047 35.452C6.85499 35.5082 6.86777 35.5319 6.92729 35.4745L6.93386 35.4726C6.97037 35.4831 7.00068 35.4951 7.03719 35.506C7.07881 35.5356 7.12044 35.5652 7.16645 35.5866C7.36763 35.7092 7.61848 35.7362 7.85691 35.7936C8.03035 35.8349 8.20379 35.8761 8.3659 35.9275C8.53898 35.9687 8.71424 36.0164 8.88585 36.0512C8.92236 36.0617 8.96034 36.0512 9.00854 36.0036C9.3587 36.0989 9.71981 36.2117 10.1017 36.223C10.3683 36.232 10.6352 36.2954 10.9134 36.2189C11.2487 36.2167 11.5835 36.1908 11.9153 36.1412C12.0315 36.1712 12.1534 36.1446 12.2633 36.073C12.3838 36.0674 12.5087 36.0535 12.6171 35.9755L12.7292 35.938C13.0538 35.9102 13.3171 35.6736 13.6158 35.4955C13.6205 35.4876 13.6329 35.4842 13.6377 35.476C13.6994 35.452 13.764 35.4411 13.8191 35.419L15.1971 34.8617C15.914 34.5755 16.5762 34.1616 17.1532 33.6392L17.7677 33.0869C18.4472 32.4768 18.9967 31.729 19.3816 30.8905L20.3192 28.8531C20.6721 28.0797 20.8793 27.2446 20.9297 26.392C20.9611 25.814 20.9192 25.2342 20.8048 24.6674L20.2287 21.8624C20.1177 21.229 19.8997 20.6252 19.6039 20.0631Z" fill="#3943D6"/>
<g id="Vector_5" style="mix-blend-mode:multiply">
<path fill-rule="evenodd" clip-rule="evenodd" d="M10.3296 23.6502C10.0557 24.0729 9.96884 24.3942 10.2365 24.4816C10.2628 24.5004 10.2803 24.5277 10.2986 24.5547C10.3336 24.6091 10.3694 24.6635 10.472 24.6507C10.5158 24.6192 10.5589 24.6001 10.5892 24.6065C10.5892 24.6065 10.5709 24.6129 10.5454 24.638C10.5206 24.6635 10.5016 24.6822 10.495 24.7137C10.6257 24.89 10.7688 25.0655 10.9562 25.1847C11.0474 25.2444 11.1263 25.319 11.203 25.3921C11.2888 25.4735 11.3717 25.5526 11.4673 25.6055C11.6309 25.6992 11.7814 25.8061 11.8693 25.9884C11.9048 26.0514 11.9402 26.114 12.0702 26.057L12.1187 26.0821C12.1866 26.234 12.3159 26.3094 12.447 26.3855C12.4842 26.4072 12.5215 26.429 12.5576 26.4526L12.8464 26.6911C13.2492 27.0361 13.6826 27.3751 14.1412 27.7014L14.1759 27.6875C14.2244 27.6684 14.2708 27.65 14.3212 27.6192L14.3329 27.6316C14.2759 27.7257 14.3092 27.7497 14.3398 27.7711C14.3501 27.7786 14.3599 27.7857 14.3661 27.7955C14.4023 27.8382 14.4519 27.8637 14.5012 27.8892C14.583 27.9312 14.6641 27.9729 14.6841 28.0902C14.6823 28.166 14.7316 28.166 14.7871 28.1465C14.8784 28.1004 14.9208 28.1416 14.9624 28.1821C15.012 28.2297 15.0599 28.2762 15.1851 28.1772L15.2092 28.1896C15.1968 28.2024 15.1902 28.2084 15.1836 28.2275C15.1612 28.2658 15.1477 28.3089 15.1442 28.3535C15.1643 28.382 15.1822 28.4142 15.2004 28.4472C15.2465 28.5297 15.2936 28.6141 15.3768 28.6362C15.5689 28.6816 15.7237 28.7967 15.8792 28.9122C15.98 28.9872 16.0811 29.0622 16.1932 29.1192L16.2349 29.1406C16.5131 29.2846 16.8037 29.4354 17.1411 29.4942C17.3544 29.5287 17.5599 29.5734 17.7662 29.6184C18.009 29.6716 18.2537 29.7249 18.5147 29.7616C18.7262 29.7935 18.9346 29.8329 19.1431 29.8719C19.3607 29.9141 19.5789 29.9523 19.7978 29.9862L20.3189 28.8537C20.6719 28.0803 20.8791 27.2452 20.9297 26.3926C20.961 25.8145 20.9189 25.2346 20.8045 24.6676L20.2287 21.8626C20.1173 21.2296 19.899 20.6259 19.6032 20.0637L19.1632 19.2335C18.7919 18.5338 18.3009 17.9085 17.7136 17.3877L17.1221 16.859C16.2804 16.1144 15.2682 15.6016 14.1806 15.3687L12.9392 15.1014C12.5173 15.012 12.0879 14.9652 11.6572 14.9615C11.0387 14.9536 10.1894 14.9409 10.1288 14.9165C10.0849 14.9015 9.71178 14.9124 9.28093 14.9244L9.25062 14.9255C8.631 14.9459 8.01711 15.0543 7.42643 15.2476C7.27271 15.5716 7.14856 15.9121 7.09343 16.2286C7.03062 16.5624 6.99776 16.9149 7.04596 17.2235C7.06166 17.3679 7.08576 17.5137 7.10949 17.6581C7.1314 17.7905 7.15294 17.9214 7.16755 18.0481C7.19785 18.3252 7.25883 18.5956 7.345 18.8536L7.61629 19.577L7.6382 19.6437C7.67837 19.766 7.71598 19.8834 7.86531 19.9415C7.87992 20.0862 7.92629 20.2122 8.02853 20.3064C7.98289 20.4136 8.00589 20.4762 8.10995 20.495C8.16509 20.4886 8.17714 20.501 8.14537 20.5452L8.16874 20.6082C8.25454 20.6082 8.27828 20.6457 8.22716 20.7215L8.27353 20.8471C8.35277 21.1239 8.44514 21.3759 8.54957 21.6271C8.56819 21.6721 8.61347 21.6957 8.65802 21.719C8.68175 21.7314 8.70548 21.7437 8.7241 21.7591C8.65948 21.9102 8.70658 21.9856 8.75404 22.0614C8.84861 22.2121 8.9242 22.382 8.99357 22.5579C9.02169 22.6201 9.04761 22.6827 9.0739 22.7446C9.11845 22.8515 9.16299 22.9576 9.21521 23.0611C9.25355 23.2411 9.36272 23.3641 9.4708 23.4864C9.50256 23.5224 9.53433 23.5584 9.56427 23.5951C9.55332 23.6979 9.60078 23.7481 9.64825 23.7995C9.67126 23.8235 9.69389 23.8482 9.71105 23.8782C9.83009 24.0294 10.0156 23.9656 10.3296 23.6502Z" fill="#2E36AB"/>
</g>
</g>
</g>
</g>
</g>
<defs>
<clipPath id="clip0_94_797">
<rect width="111" height="36" fill="white" transform="translate(0 0.5)"/>
</clipPath>
</defs>
</svg>
