<svg width="34" height="34" viewBox="0 0 34 34" fill="none" xmlns="http://www.w3.org/2000/svg">
<path d="M2.49805 17.7915H7.62012V16.6196H4.42676V16.561L5.90137 15.2134C7.11719 14.0952 7.52246 13.5386 7.52246 12.6841V12.6743C7.52246 11.4731 6.49707 10.6235 5.00781 10.6235C3.51855 10.6235 2.41504 11.5562 2.41504 12.8843V12.9233H3.78223L3.78711 12.8794C3.80664 12.2446 4.29492 11.771 5.01758 11.771C5.64258 11.771 6.08203 12.1812 6.08691 12.7573V12.7671C6.08691 13.2554 5.89648 13.6021 4.98828 14.4517L2.49805 16.7808V17.7915ZM11.7656 17.7915H13.167V16.4976H14.0947V15.3208H13.167V10.7456H11.0869L8.25977 15.2671V16.4976H11.7656V17.7915ZM9.54395 15.3599V15.3208L11.7607 11.8101H11.7949V15.3599H9.54395Z" fill="#00B884"/>
<path d="M27.1304 27.4381L27.3312 27.4755L27.2939 27.2746C27.0988 26.2248 26.8907 25.0796 26.6905 23.9321C26.5731 23.2591 26.6752 22.5723 26.9721 21.9693C27.7085 20.4739 28.1235 18.7897 28.1235 16.9999C28.1235 10.7768 23.0787 5.73204 16.8557 5.73204C14.2254 5.73204 11.8052 6.63345 9.88787 8.14411C9.78067 8.22857 9.6504 8.27551 9.51729 8.27551H6.84105C6.35879 8.27551 6.12116 7.74381 6.4279 7.41043C9.01716 4.5963 12.7304 2.83325 16.8557 2.83325C24.6797 2.83325 31.0223 9.17588 31.0223 16.9999C31.0223 19.2435 30.5009 21.3649 29.5727 23.2499C29.5447 23.3067 29.5352 23.3711 29.5462 23.434C29.8252 25.0333 30.1201 26.6297 30.3725 27.9645L30.4052 28.1371C30.6159 29.2484 30.7942 30.1639 30.9048 30.7262L30.979 31.1026C30.9799 31.1071 30.9794 31.1102 30.9788 31.1123C30.9781 31.1146 30.9767 31.117 30.9747 31.119C30.9727 31.1209 30.9704 31.1223 30.9681 31.123L30.9652 31.1237C30.9634 31.1239 30.9612 31.1238 30.9584 31.1233L30.5821 31.049C30.0197 30.9385 29.1041 30.7601 27.9929 30.5495L27.8202 30.5168C26.4855 30.2644 24.8891 29.9694 23.2898 29.6905C23.2269 29.6795 23.1625 29.689 23.1056 29.717C21.2207 30.6451 19.0993 31.1666 16.8557 31.1666C12.1239 31.1666 7.93398 28.8469 5.36092 25.2821C5.10974 24.9341 5.36271 24.4526 5.81499 24.4526H8.14264C8.30802 24.4526 8.46696 24.5249 8.58223 24.6495C10.6404 26.8745 13.5854 28.2678 16.8557 28.2678C18.6455 28.2678 20.3296 27.8527 21.8251 27.1164C22.428 26.8194 23.1149 26.7174 23.7879 26.8348C24.9353 27.0349 26.0806 27.2431 27.1304 27.4381Z" fill="#00B884"/>
</svg>
