<svg width="28" height="28" viewBox="0 0 28 28" fill="none" xmlns="http://www.w3.org/2000/svg">
<path fill-rule="evenodd" clip-rule="evenodd" d="M13.5939 2.52491C13.8524 2.40999 14.1476 2.40999 14.4061 2.52491L24.2879 6.91679L14.0002 11.4891L3.71224 6.91674L13.5939 2.52491ZM2.25 8.4555V19.7837C2.25 20.1789 2.48273 20.537 2.84386 20.6975L13.0002 25.2114V13.2333L2.25 8.4555ZM15.0002 25.2112L25.1561 20.6975C25.5173 20.537 25.75 20.1789 25.75 19.7837V8.45559L15.0002 13.2333V25.2112ZM15.2184 0.697286C14.4427 0.352532 13.5573 0.352533 12.7816 0.697286L2.03158 5.47506C0.9482 5.95657 0.25 7.03093 0.25 8.2165V19.7837C0.25 20.9692 0.948201 22.0436 2.03158 22.5251L12.7816 27.3029C13.5573 27.6476 14.4427 27.6476 15.2184 27.3029L25.9684 22.5251C27.0518 22.0436 27.75 20.9692 27.75 19.7837V8.2165C27.75 7.03093 27.0518 5.95657 25.9684 5.47506L15.2184 0.697286Z" fill="#FD71AF"/>
</svg>
