<svg width="113" height="26" viewBox="0 0 113 26" fill="none" xmlns="http://www.w3.org/2000/svg">
<g clip-path="url(#clip0_1_2042)">
<path d="M112.491 25.4299H108.437V5.86785C108.312 5.86785 108.374 5.86785 108.25 5.80555C107.938 6.36625 107.626 6.86464 107.314 7.42534C105.567 10.4157 103.883 13.4061 102.074 16.3965C100.452 19.2 96.7096 19.2 95.0253 16.3965C93.154 13.1569 91.2826 9.85503 89.4112 6.61545C89.2241 6.30395 89.0993 6.05475 88.7874 5.80555V25.4922H84.6704C84.6704 25.243 84.6704 24.9938 84.6704 24.7446C84.6704 18.3278 84.6704 11.9732 84.6704 5.55635C84.6704 3.56276 85.7932 1.94297 87.5398 1.50688C89.3488 1.07078 91.0955 1.50688 92.2183 3.50046C94.152 6.92694 96.1482 10.4157 98.1443 13.8422C98.2691 14.0291 98.3938 14.2783 98.5809 14.5898C99.3295 13.2815 100.016 12.0978 100.702 10.9141C102.074 8.48444 103.509 6.05475 104.881 3.56276C105.755 2.00527 107.127 1.25768 108.936 1.44458C110.682 1.56918 111.743 2.50367 112.367 4.06116C112.429 4.31036 112.554 4.68416 112.554 4.87106V25.4299H112.491Z" fill="black"/>
<path d="M0.708252 6.17935C0.708252 5.24485 0.895389 4.24806 1.39442 3.37586C1.51918 3.12666 1.64394 2.81517 1.89345 2.62827C3.76483 0.57238 6.94616 0.946177 8.3185 3.37586C11.4998 8.85823 14.6188 14.3406 17.8001 19.823C18.0496 20.2591 18.2992 20.6952 18.6734 21.069V1.38227H22.7281C22.7281 1.63147 22.7905 1.88067 22.7905 2.12987C22.7905 8.54673 22.7281 14.9636 22.7905 21.3805C22.7905 23.4986 21.2934 24.9938 19.7963 25.3676C17.9873 25.8037 16.1783 25.0561 15.1802 23.3118C11.8741 17.6425 8.6304 11.9732 5.38668 6.30395C5.26193 6.11705 5.13717 5.93015 4.95003 5.61865V25.4299H0.708252C0.708252 19.0131 0.708252 12.5962 0.708252 6.17935Z" fill="black"/>
<path d="M38.1357 25.866C37.3872 25.6791 36.6386 25.4922 35.9525 25.3053C29.2779 23.4363 25.348 16.1473 27.5937 9.60583C29.2779 4.80876 32.7088 1.81837 37.7615 1.13308C45.1222 0.0739846 50.6116 4.99566 51.8591 11.1633C53.1067 17.6425 48.7402 24.1216 42.3151 25.4922C41.7537 25.6168 41.1299 25.7414 40.5685 25.866C39.7576 25.866 38.9467 25.866 38.1357 25.866ZM31.3364 13.3438C31.2117 17.7048 34.6425 21.7543 39.5081 21.7543C44.1241 21.7543 47.7421 18.0786 47.7421 13.3438C47.7421 8.67133 44.1241 4.99566 39.5705 4.93336C34.8297 4.93336 31.2117 8.98283 31.3364 13.3438Z" fill="black"/>
<path d="M66.83 25.866C66.3934 25.8037 66.0191 25.6791 65.5825 25.6168C59.7188 24.4954 55.4771 19.3869 55.4771 13.4061C55.4771 7.23844 60.0931 1.81837 66.2063 1.07077C73.6917 0.13628 79.2435 5.18255 80.2416 11.2256C80.9277 15.2751 79.8673 18.8885 76.9978 21.9412C74.9393 24.1216 72.3818 25.3676 69.45 25.7414C69.3876 25.7414 69.2628 25.8037 69.2005 25.866C68.3895 25.866 67.5786 25.866 66.83 25.866ZM68.0152 4.99565C63.4616 4.93335 59.7812 8.54673 59.7188 13.0946C59.5941 17.8294 63.1497 21.692 67.8281 21.7543C72.4442 21.8166 76.1245 18.2032 76.1869 13.5307C76.1869 8.73363 72.6313 5.05795 68.0152 4.99565Z" fill="black"/>
</g>
<defs>
<clipPath id="clip0_1_2042">
<rect width="111.783" height="24.9199" fill="white" transform="translate(0.708252 0.958778)"/>
</clipPath>
</defs>
</svg>
